M48
;Layer_Color=9474304
;FILE_FORMAT=4:3
METRIC
;TYPE=PLATED
T1F00S00C0.400
T2F00S00C0.500
T3F00S00C0.600
T4F00S00C0.700
T5F00S00C0.800
T6F00S00C0.850
T7F00S00C0.900
T8F00S00C1.000
T10F00S00C1.100
T11F00S00C1.400
T12F00S00C1.500
;TYPE=NON_PLATED
T13F00S00C3.200
%
T01
X0001570Y0001390
Y0007560
Y0013150
X0007980Y0001370
X0017100Y0001000
X0022840Y0000930
X0024070Y0006860
X0030470Y0004410
X0033290Y0000930
X0040010
X0038680Y0004830
X0042697Y0009855
X0052550Y0009860
X0050480Y0013340
X0048300Y0000930
X0056230
X0051880Y0016660
X0050140Y0015850
X0050670Y0019180
X0052250Y0019950
X0049370Y0021370
X0048040Y0023890
Y0026410
X0046380Y0026100
X0050680Y0027610
X0052220Y0028320
X0053370Y0030680
X0055730Y0030450
X0052130Y0032170
X0048020Y0031430
X0050640Y0035880
X0049360Y0038010
X0047490Y0039450
X0047240Y0042900
X0046970Y0044850
X0045610Y0044050
X0045450Y0045840
X0047777Y0046787
X0049360Y0045770
X0051220Y0045960
X0051130Y0044050
X0051920Y0042950
X0054480Y0042880
X0053340Y0040920
X0056050Y0039730
X0058560Y0037590
X0058600Y0033300
X0056050Y0045490
X0055070Y0047440
X0055460Y0048630
X0053130Y0048310
X0050520Y0047780
X0049640Y0048480
X0050770Y0052330
X0045730Y0049890
X0045310Y0019010
X0046730Y0017050
X0052120Y0024130
X0043080Y0025820
X0041400Y0031370
X0045040Y0033170
X0041980Y0037580
X0041720Y0042890
X0042290Y0044880
X0044120Y0044990
X0042210Y0049270
X0040110Y0048840
X0037530Y0048480
X0034265Y0047676
X0031710Y0047670
X0031530Y0046020
X0028800
X0029040Y0047750
X0028920Y0049410
X0026250Y0048480
X0025980Y0046110
X0028940Y0044040
X0032750Y0043650
X0034070Y0041560
X0034900Y0045669
X0034630Y0052330
X0026390
X0023350Y0048520
X0020470Y0048260
X0018790Y0052330
X0011140
X0008350Y0048520
X0013180Y0046350
X0013170Y0042090
X0013280Y0037090
Y0031890
X0006550Y0031840
Y0027670
X0006620Y0021140
X0010970Y0016350
X0022120Y0022190
X0025730Y0018860
X0029070Y0016860
X0028190Y0023160
X0026130Y0026000
X0021670Y0030530
X0021800Y0034850
X0020590Y0037400
X0019770Y0041610
X0016783Y0045613
X0006310Y0042230
X0006450Y0037010
X0016880Y0027550
X0028060Y0037190
X0030280Y0037500
X0026360Y0040070
X0035530Y0034990
X0034420Y0031420
X0037540Y0029210
X0034170Y0022400
X0037010Y0016810
X0040360Y0018630
X0043160Y0052330
X0001570Y0051810
Y0047130
Y0042980
Y0038770
Y0033720
Y0029020
Y0023850
Y0018610
T02
X0048260Y0016510
X0047110Y0018550
X0046790Y0027990
X0052070Y0030480
X0053340Y0029210
X0028448Y0030480
T03
X0008306Y0017954
X0008306Y0020654
X0008305Y0023035
Y0025735
X0008306Y0028114
X0008306Y0030814
X0008306Y0033194
Y0035894
Y0038275
Y0040975
X0008306Y0043354
Y0046054
X0011506Y0046054
Y0043354
X0011506Y0040974
X0011506Y0038274
Y0035894
Y0033194
X0011506Y0030814
X0011506Y0028114
X0011506Y0025734
Y0023034
X0011506Y0020654
Y0017954
T04
X0039370Y0008890
Y0011430
X0045950
Y0008890
X0053594Y0026416
X0056134
T05
X0026670Y0007620
X0029310Y0007150
X0036000Y0024350
X0022330Y0024280
X0013580Y0025730
X0013510Y0022560
X0012980Y0028740
X0012990Y0033910
X0013040Y0039040
X0013140Y0043510
X0022650Y0038580
X0036210Y0038070
T06
X0030988Y0021082
Y0028702
Y0035052
Y0042672
X0044958
Y0035052
Y0028702
Y0021082
T07
X0019192Y0009482
X0022728Y0013018
T08
X0024384Y0022098
Y0024638
Y0027178
X0024638Y0036322
Y0038862
Y0041402
X0038608
Y0038862
Y0036322
Y0027178
Y0024638
Y0022098
T10
X0019050Y0002540
X0021590
X0024130
X0026670
X0029210
X0031750
X0034290
X0036830
X0041910
X0044450
X0046990
X0049530
X0052070
X0054610
X0053594Y0013716
X0056134
X0050490Y0010780
X0053594Y0016256
X0056134
Y0018796
Y0021336
X0053594
Y0018796
X0054610Y0050800
X0052070
X0049530
X0046990
X0044450
X0041910
X0039370
X0036830
X0032766
X0030226
X0027686
X0025146
X0022606
X0020066
X0017526
X0014986
X0012446
X0009906
T11
X0015240Y0002540
Y0007620
T12
X0009906Y0019304
Y0024384
X0009906Y0029464
X0009906Y0034544
X0009906Y0039624
X0009906Y0044704
T13
X0005080Y0002540
X0057150Y0007620
Y0035560
X0006350Y0050800
M30
