G04 Layer_Physical_Order=1*
G04 Layer_Color=255*
%FSAX43Y43*%
%MOMM*%
G71*
G01*
G75*
%ADD10C,0.254*%
%ADD11C,1.600*%
%ADD12C,0.260*%
G04:AMPARAMS|DCode=13|XSize=2mm|YSize=2mm|CornerRadius=0.3mm|HoleSize=0mm|Usage=FLASHONLY|Rotation=180.000|XOffset=0mm|YOffset=0mm|HoleType=Round|Shape=RoundedRectangle|*
%AMROUNDEDRECTD13*
21,1,2.000,1.400,0,0,180.0*
21,1,1.400,2.000,0,0,180.0*
1,1,0.600,-0.700,0.700*
1,1,0.600,0.700,0.700*
1,1,0.600,0.700,-0.700*
1,1,0.600,-0.700,-0.700*
%
%ADD13ROUNDEDRECTD13*%
%ADD14C,1.200*%
G04:AMPARAMS|DCode=15|XSize=1.8mm|YSize=1.8mm|CornerRadius=0.27mm|HoleSize=0mm|Usage=FLASHONLY|Rotation=180.000|XOffset=0mm|YOffset=0mm|HoleType=Round|Shape=RoundedRectangle|*
%AMROUNDEDRECTD15*
21,1,1.800,1.260,0,0,180.0*
21,1,1.260,1.800,0,0,180.0*
1,1,0.540,-0.630,0.630*
1,1,0.540,0.630,0.630*
1,1,0.540,0.630,-0.630*
1,1,0.540,-0.630,-0.630*
%
%ADD15ROUNDEDRECTD15*%
G04:AMPARAMS|DCode=16|XSize=1.7mm|YSize=1.7mm|CornerRadius=0.425mm|HoleSize=0mm|Usage=FLASHONLY|Rotation=0.000|XOffset=0mm|YOffset=0mm|HoleType=Round|Shape=RoundedRectangle|*
%AMROUNDEDRECTD16*
21,1,1.700,0.850,0,0,0.0*
21,1,0.850,1.700,0,0,0.0*
1,1,0.850,0.425,-0.425*
1,1,0.850,-0.425,-0.425*
1,1,0.850,-0.425,0.425*
1,1,0.850,0.425,0.425*
%
%ADD16ROUNDEDRECTD16*%
%ADD17C,1.700*%
G04:AMPARAMS|DCode=18|XSize=3.5mm|YSize=4mm|CornerRadius=0.35mm|HoleSize=0mm|Usage=FLASHONLY|Rotation=90.000|XOffset=0mm|YOffset=0mm|HoleType=Round|Shape=RoundedRectangle|*
%AMROUNDEDRECTD18*
21,1,3.500,3.300,0,0,90.0*
21,1,2.800,4.000,0,0,90.0*
1,1,0.700,1.650,1.400*
1,1,0.700,1.650,-1.400*
1,1,0.700,-1.650,-1.400*
1,1,0.700,-1.650,1.400*
%
%ADD18ROUNDEDRECTD18*%
%ADD19O,2.500X4.500*%
%ADD20O,2.500X5.000*%
%ADD21O,4.500X2.500*%
G04:AMPARAMS|DCode=22|XSize=1.7mm|YSize=1.7mm|CornerRadius=0.425mm|HoleSize=0mm|Usage=FLASHONLY|Rotation=270.000|XOffset=0mm|YOffset=0mm|HoleType=Round|Shape=RoundedRectangle|*
%AMROUNDEDRECTD22*
21,1,1.700,0.850,0,0,270.0*
21,1,0.850,1.700,0,0,270.0*
1,1,0.850,-0.425,-0.425*
1,1,0.850,-0.425,0.425*
1,1,0.850,0.425,0.425*
1,1,0.850,0.425,-0.425*
%
%ADD22ROUNDEDRECTD22*%
%ADD23C,1.500*%
%ADD24R,1.600X1.600*%
%ADD25C,1.600*%
%ADD26C,1.400*%
%ADD27C,0.800*%
%ADD28C,1.000*%
%ADD29C,0.700*%
G36*
X0011854Y0030911D02*
X0011904Y0030775D01*
X0011987Y0030655D01*
X0012104Y0030552D01*
X0012254Y0030464D01*
X0012438Y0030392D01*
X0012655Y0030336D01*
X0012905Y0030296D01*
X0013189Y0030272D01*
X0013506Y0030264D01*
Y0028664D01*
X0013189Y0028656D01*
X0012905Y0028632D01*
X0012655Y0028592D01*
X0012438Y0028537D01*
X0012254Y0028465D01*
X0012104Y0028377D01*
X0011987Y0028273D01*
X0011904Y0028153D01*
X0011854Y0028018D01*
X0011837Y0027866D01*
Y0031062D01*
X0011854Y0030911D01*
D02*
G37*
G36*
X0056742Y0051647D02*
Y0040386D01*
X0056742Y0040386D01*
X0056773Y0040230D01*
X0056862Y0040098D01*
X0059282Y0037677D01*
Y0005249D01*
X0056862Y0002828D01*
X0056773Y0002696D01*
X0056742Y0002540D01*
X0056742Y0002540D01*
Y0000408D01*
X0039541D01*
X0039465Y0000500D01*
Y0003150D01*
X0039445Y0003248D01*
X0039390Y0003330D01*
X0037865Y0004856D01*
Y0009200D01*
X0037845Y0009298D01*
X0037790Y0009380D01*
X0034890Y0012280D01*
X0034890Y0012280D01*
X0031940Y0015230D01*
X0031858Y0015285D01*
X0031760Y0015305D01*
X0028166D01*
X0018390Y0025080D01*
X0016290Y0027180D01*
X0016208Y0027235D01*
X0016110Y0027255D01*
X0011984D01*
X0011951Y0027335D01*
X0011949Y0027382D01*
X0012112Y0027508D01*
X0012249Y0027685D01*
X0012310Y0027833D01*
X0012452Y0027885D01*
X0012476Y0027867D01*
X0012719Y0027766D01*
X0012980Y0027731D01*
X0013241Y0027766D01*
X0013484Y0027867D01*
X0013693Y0028027D01*
X0013854Y0028236D01*
X0013924Y0028405D01*
X0017407D01*
X0021346Y0024466D01*
X0021321Y0024280D01*
X0021356Y0024019D01*
X0021457Y0023776D01*
X0021617Y0023567D01*
X0021826Y0023406D01*
X0022069Y0023306D01*
X0022330Y0023271D01*
X0022591Y0023306D01*
X0022834Y0023406D01*
X0023043Y0023567D01*
X0023053Y0023579D01*
X0024384D01*
X0024658Y0023615D01*
X0024914Y0023721D01*
X0025133Y0023889D01*
X0025301Y0024108D01*
X0025407Y0024364D01*
X0025443Y0024638D01*
X0025407Y0024912D01*
X0025301Y0025168D01*
X0025133Y0025387D01*
X0024914Y0025555D01*
X0024658Y0025661D01*
X0024384Y0025697D01*
X0023111D01*
X0018595Y0030213D01*
X0018375Y0030381D01*
X0018120Y0030487D01*
X0017846Y0030523D01*
X0017846Y0030523D01*
X0013344D01*
X0013203Y0030527D01*
X0012936Y0030549D01*
X0012707Y0030586D01*
X0012516Y0030635D01*
X0012366Y0030694D01*
X0012349Y0030704D01*
X0012364Y0030814D01*
X0012334Y0031036D01*
X0012249Y0031242D01*
X0012112Y0031420D01*
X0011935Y0031556D01*
X0011728Y0031642D01*
X0011506Y0031671D01*
X0011284Y0031642D01*
X0011078Y0031556D01*
X0010973Y0031476D01*
X0008840D01*
X0008735Y0031556D01*
X0008528Y0031642D01*
X0008306Y0031671D01*
X0008084Y0031642D01*
X0007877Y0031556D01*
X0007700Y0031420D01*
X0007564Y0031243D01*
X0007478Y0031036D01*
X0007449Y0030814D01*
X0007478Y0030592D01*
X0007564Y0030385D01*
X0007644Y0030280D01*
Y0028648D01*
X0007564Y0028543D01*
X0007478Y0028336D01*
X0007449Y0028114D01*
X0007478Y0027892D01*
X0007564Y0027685D01*
X0007700Y0027508D01*
X0007864Y0027382D01*
X0007862Y0027336D01*
X0007828Y0027255D01*
X0007360D01*
X0007262Y0027235D01*
X0007180Y0027180D01*
X0006180Y0026180D01*
X0006125Y0026098D01*
X0006105Y0026000D01*
Y0022950D01*
X0006125Y0022852D01*
X0006180Y0022770D01*
X0007260Y0021690D01*
X0007342Y0021635D01*
X0007440Y0021615D01*
X0012134D01*
X0013105Y0020644D01*
Y0018300D01*
Y0017006D01*
X0010630Y0014530D01*
X0010630Y0014530D01*
X0009480Y0013380D01*
X0009425Y0013298D01*
X0009405Y0013200D01*
Y0011400D01*
Y0009400D01*
X0009425Y0009302D01*
X0009480Y0009220D01*
X0011280Y0007420D01*
X0012880Y0005820D01*
X0012962Y0005765D01*
X0013060Y0005745D01*
X0021810D01*
X0021908Y0005765D01*
X0021990Y0005820D01*
X0024840Y0008670D01*
X0025256Y0009086D01*
X0025369Y0009075D01*
X0025408Y0008958D01*
X0025130Y0008680D01*
X0025075Y0008598D01*
X0025055Y0008500D01*
Y0003339D01*
X0024935Y0003298D01*
X0024915Y0003325D01*
X0024685Y0003501D01*
X0024417Y0003612D01*
X0024130Y0003649D01*
X0023843Y0003612D01*
X0023575Y0003501D01*
X0023345Y0003325D01*
X0023169Y0003095D01*
X0023058Y0002827D01*
X0023021Y0002540D01*
X0023058Y0002253D01*
X0023169Y0001985D01*
X0023345Y0001755D01*
X0023575Y0001579D01*
X0023843Y0001468D01*
X0024130Y0001431D01*
X0024417Y0001468D01*
X0024685Y0001579D01*
X0024915Y0001755D01*
X0024935Y0001782D01*
X0025055Y0001741D01*
Y0001150D01*
X0025075Y0001052D01*
X0025130Y0000970D01*
X0025212Y0000915D01*
X0025310Y0000895D01*
X0025660D01*
X0028020Y0000895D01*
X0028118Y0000914D01*
X0028200Y0000970D01*
X0028290Y0001060D01*
X0028345Y0001142D01*
X0028365Y0001240D01*
Y0001642D01*
X0028492Y0001705D01*
X0028655Y0001579D01*
X0028923Y0001468D01*
X0029210Y0001431D01*
X0029497Y0001468D01*
X0029765Y0001579D01*
X0029995Y0001755D01*
X0030171Y0001985D01*
X0030282Y0002253D01*
X0030319Y0002540D01*
X0030282Y0002827D01*
X0030171Y0003095D01*
X0029995Y0003325D01*
X0029765Y0003501D01*
X0029497Y0003612D01*
X0029210Y0003649D01*
X0028923Y0003612D01*
X0028655Y0003501D01*
X0028492Y0003375D01*
X0028365Y0003438D01*
Y0003744D01*
X0030890Y0006270D01*
X0030936Y0006339D01*
X0030995Y0006359D01*
X0031079Y0006371D01*
X0033802Y0003647D01*
X0033778Y0003523D01*
X0033733Y0003504D01*
X0033503Y0003327D01*
X0033326Y0003097D01*
X0033214Y0002828D01*
X0033203Y0002740D01*
X0034290D01*
Y0002540D01*
X0034490D01*
Y0001453D01*
X0034578Y0001464D01*
X0034728Y0001527D01*
X0034855Y0001442D01*
Y0000500D01*
X0034779Y0000408D01*
X0000408D01*
Y0052932D01*
X0055457D01*
X0056742Y0051647D01*
D02*
G37*
G36*
X0009037Y0028733D02*
X0009005Y0028697D01*
X0008977Y0028656D01*
X0008953Y0028611D01*
X0008933Y0028561D01*
X0008918Y0028507D01*
X0008907Y0028449D01*
X0008900Y0028386D01*
X0008897Y0028319D01*
X0008898Y0028247D01*
X0008903Y0028171D01*
X0008261Y0028712D01*
X0008342Y0028720D01*
X0008489Y0028743D01*
X0008554Y0028758D01*
X0008614Y0028775D01*
X0008669Y0028795D01*
X0008719Y0028818D01*
X0008764Y0028843D01*
X0008803Y0028871D01*
X0008837Y0028901D01*
X0009037Y0028733D01*
D02*
G37*
G36*
X0008835Y0031105D02*
X0009068Y0030811D01*
X0009100Y0030777D01*
X0009131Y0030745D01*
X0009132Y0030376D01*
X0009092Y0030412D01*
X0009051Y0030440D01*
X0009010Y0030460D01*
X0008969Y0030472D01*
X0008927Y0030476D01*
X0008886Y0030472D01*
X0008843Y0030460D01*
X0008801Y0030440D01*
X0008758Y0030411D01*
X0008715Y0030375D01*
X0008800Y0031155D01*
X0008835Y0031105D01*
D02*
G37*
G36*
X0018210Y0024900D02*
X0028060Y0015050D01*
X0031760D01*
X0034710Y0012100D01*
X0037610Y0009200D01*
Y0004750D01*
X0039210Y0003150D01*
Y0000500D01*
X0035110D01*
Y0001802D01*
X0035251Y0001985D01*
X0035362Y0002253D01*
X0035399Y0002540D01*
X0035362Y0002827D01*
X0035251Y0003095D01*
X0035075Y0003325D01*
X0034845Y0003501D01*
X0034577Y0003612D01*
X0034290Y0003649D01*
X0034176Y0003634D01*
X0031210Y0006600D01*
Y0007650D01*
X0030760Y0008100D01*
X0029510Y0009350D01*
X0025160D01*
X0024660Y0008850D01*
X0021810Y0006000D01*
X0013060D01*
X0011460Y0007600D01*
X0009660Y0009400D01*
Y0011400D01*
Y0013200D01*
X0010810Y0014350D01*
X0013360Y0016900D01*
Y0018300D01*
Y0020750D01*
X0012240Y0021870D01*
X0007440D01*
X0006360Y0022950D01*
Y0026000D01*
X0007360Y0027000D01*
X0016110D01*
X0018210Y0024900D01*
D02*
G37*
G36*
X0030710Y0007450D02*
X0030710Y0006450D01*
X0028110Y0003850D01*
Y0002612D01*
X0028101Y0002540D01*
X0028110Y0002468D01*
Y0001240D01*
X0028020Y0001150D01*
X0025660Y0001150D01*
X0025310D01*
Y0001500D01*
Y0008500D01*
X0025610Y0008800D01*
X0029360D01*
X0030710Y0007450D01*
D02*
G37*
%LPC*%
G36*
X0039570Y0012265D02*
Y0011630D01*
X0040205D01*
X0040202Y0011653D01*
X0040116Y0011861D01*
X0039979Y0012039D01*
X0039801Y0012176D01*
X0039593Y0012262D01*
X0039570Y0012265D01*
D02*
G37*
G36*
X0039170D02*
X0039147Y0012262D01*
X0038939Y0012176D01*
X0038761Y0012039D01*
X0038624Y0011861D01*
X0038538Y0011653D01*
X0038535Y0011630D01*
X0039170D01*
Y0012265D01*
D02*
G37*
G36*
X0056134Y0014825D02*
X0055847Y0014788D01*
X0055579Y0014677D01*
X0055349Y0014501D01*
X0055173Y0014271D01*
X0055062Y0014003D01*
X0055025Y0013716D01*
X0055029Y0013682D01*
X0055028Y0013590D01*
X0055015Y0013380D01*
X0055004Y0013297D01*
X0054990Y0013223D01*
X0054973Y0013160D01*
X0054956Y0013110D01*
X0054938Y0013073D01*
X0054922Y0013047D01*
X0053039Y0011164D01*
X0051650D01*
Y0011410D01*
X0051610Y0011613D01*
X0051495Y0011785D01*
X0051323Y0011900D01*
X0051120Y0011940D01*
X0049860D01*
X0049657Y0011900D01*
X0049485Y0011785D01*
X0049370Y0011613D01*
X0049330Y0011410D01*
Y0010150D01*
X0049370Y0009947D01*
X0049485Y0009775D01*
X0049657Y0009660D01*
X0049860Y0009620D01*
X0051120D01*
X0051323Y0009660D01*
X0051495Y0009775D01*
X0051610Y0009947D01*
X0051650Y0010150D01*
Y0010396D01*
X0053198D01*
X0053198Y0010396D01*
X0053345Y0010425D01*
X0053470Y0010508D01*
X0055465Y0012504D01*
X0055491Y0012520D01*
X0055528Y0012538D01*
X0055578Y0012555D01*
X0055641Y0012572D01*
X0055715Y0012586D01*
X0055798Y0012597D01*
X0056008Y0012610D01*
X0056100Y0012611D01*
X0056134Y0012607D01*
X0056421Y0012644D01*
X0056689Y0012755D01*
X0056919Y0012931D01*
X0057095Y0013161D01*
X0057206Y0013429D01*
X0057243Y0013716D01*
X0057206Y0014003D01*
X0057095Y0014271D01*
X0056919Y0014501D01*
X0056689Y0014677D01*
X0056421Y0014788D01*
X0056134Y0014825D01*
D02*
G37*
G36*
Y0017365D02*
X0055847Y0017328D01*
X0055579Y0017217D01*
X0055349Y0017041D01*
X0055173Y0016811D01*
X0055062Y0016543D01*
X0055025Y0016256D01*
X0055062Y0015969D01*
X0055173Y0015701D01*
X0055349Y0015471D01*
X0055579Y0015295D01*
X0055847Y0015184D01*
X0056134Y0015147D01*
X0056421Y0015184D01*
X0056689Y0015295D01*
X0056919Y0015471D01*
X0057095Y0015701D01*
X0057206Y0015969D01*
X0057243Y0016256D01*
X0057206Y0016543D01*
X0057095Y0016811D01*
X0056919Y0017041D01*
X0056689Y0017217D01*
X0056421Y0017328D01*
X0056134Y0017365D01*
D02*
G37*
G36*
X0022728Y0014026D02*
X0022467Y0013992D01*
X0022223Y0013891D01*
X0022015Y0013731D01*
X0021854Y0013522D01*
X0021754Y0013279D01*
X0021719Y0013018D01*
X0021754Y0012757D01*
X0021854Y0012513D01*
X0022015Y0012305D01*
X0022223Y0012144D01*
X0022467Y0012044D01*
X0022728Y0012009D01*
X0022989Y0012044D01*
X0023232Y0012144D01*
X0023441Y0012305D01*
X0023601Y0012513D01*
X0023702Y0012757D01*
X0023736Y0013018D01*
X0023702Y0013279D01*
X0023601Y0013522D01*
X0023441Y0013731D01*
X0023232Y0013891D01*
X0022989Y0013992D01*
X0022728Y0014026D01*
D02*
G37*
G36*
X0045750Y0012265D02*
X0045727Y0012262D01*
X0045519Y0012176D01*
X0045341Y0012039D01*
X0045204Y0011861D01*
X0045118Y0011653D01*
X0045115Y0011630D01*
X0045750D01*
Y0012265D01*
D02*
G37*
G36*
X0046150D02*
Y0011630D01*
X0046785D01*
X0046782Y0011653D01*
X0046696Y0011861D01*
X0046559Y0012039D01*
X0046381Y0012176D01*
X0046173Y0012262D01*
X0046150Y0012265D01*
D02*
G37*
G36*
X0012852Y0013156D02*
Y0010614D01*
X0013900D01*
Y0010668D01*
X0013902Y0010644D01*
X0013910Y0010622D01*
X0013916Y0010614D01*
X0014163D01*
Y0011664D01*
X0014134Y0011959D01*
X0014048Y0012242D01*
X0013909Y0012504D01*
X0013721Y0012733D01*
X0013492Y0012921D01*
X0013230Y0013060D01*
X0012947Y0013146D01*
X0012852Y0013156D01*
D02*
G37*
G36*
X0039170Y0011230D02*
X0038535D01*
X0038538Y0011207D01*
X0038624Y0010999D01*
X0038761Y0010821D01*
X0038939Y0010684D01*
X0039147Y0010598D01*
X0039170Y0010595D01*
Y0011230D01*
D02*
G37*
G36*
X0040205D02*
X0039570D01*
Y0010595D01*
X0039593Y0010598D01*
X0039801Y0010684D01*
X0039979Y0010821D01*
X0040116Y0010999D01*
X0040202Y0011207D01*
X0040205Y0011230D01*
D02*
G37*
G36*
X0014163Y0010214D02*
X0013916D01*
X0013910Y0010206D01*
X0013902Y0010184D01*
X0013900Y0010160D01*
Y0010214D01*
X0012852D01*
Y0007672D01*
X0012947Y0007682D01*
X0013230Y0007768D01*
X0013492Y0007907D01*
X0013721Y0008095D01*
X0013848Y0008251D01*
X0013975Y0008205D01*
Y0007820D01*
X0015040D01*
Y0008885D01*
X0014540D01*
X0014324Y0008842D01*
X0014242Y0008787D01*
X0014134Y0008868D01*
X0014134Y0008869D01*
X0014163Y0009164D01*
Y0010214D01*
D02*
G37*
G36*
X0020031Y0010038D02*
X0019475Y0009482D01*
X0020031Y0008926D01*
X0020069Y0008976D01*
X0020170Y0009220D01*
X0020205Y0009482D01*
X0020170Y0009744D01*
X0020069Y0009989D01*
X0020031Y0010038D01*
D02*
G37*
G36*
X0019192Y0010495D02*
X0018930Y0010460D01*
X0018686Y0010359D01*
X0018636Y0010321D01*
X0019192Y0009765D01*
X0019748Y0010321D01*
X0019699Y0010359D01*
X0019454Y0010460D01*
X0019192Y0010495D01*
D02*
G37*
G36*
X0006852Y0012906D02*
Y0010614D01*
X0008163D01*
Y0011414D01*
X0008134Y0011709D01*
X0008048Y0011992D01*
X0007909Y0012254D01*
X0007721Y0012483D01*
X0007492Y0012671D01*
X0007230Y0012810D01*
X0006947Y0012896D01*
X0006852Y0012906D01*
D02*
G37*
G36*
X0012452Y0013156D02*
X0012357Y0013146D01*
X0012074Y0013060D01*
X0011812Y0012921D01*
X0011583Y0012733D01*
X0011395Y0012504D01*
X0011256Y0012242D01*
X0011170Y0011959D01*
X0011141Y0011664D01*
Y0010614D01*
X0012452D01*
Y0013156D01*
D02*
G37*
G36*
X0006452Y0012906D02*
X0006357Y0012896D01*
X0006074Y0012810D01*
X0005812Y0012671D01*
X0005583Y0012483D01*
X0005395Y0012254D01*
X0005256Y0011992D01*
X0005170Y0011709D01*
X0005141Y0011414D01*
Y0010614D01*
X0006452D01*
Y0012906D01*
D02*
G37*
G36*
X0045750Y0011230D02*
X0045115D01*
X0045118Y0011207D01*
X0045204Y0010999D01*
X0045341Y0010821D01*
X0045519Y0010684D01*
X0045727Y0010598D01*
X0045750Y0010595D01*
Y0011230D01*
D02*
G37*
G36*
X0046785D02*
X0046150D01*
Y0010595D01*
X0046173Y0010598D01*
X0046381Y0010684D01*
X0046559Y0010821D01*
X0046696Y0010999D01*
X0046782Y0011207D01*
X0046785Y0011230D01*
D02*
G37*
G36*
X0025146Y0051909D02*
X0024859Y0051872D01*
X0024591Y0051761D01*
X0024361Y0051585D01*
X0024185Y0051355D01*
X0024074Y0051087D01*
X0024037Y0050800D01*
X0024074Y0050513D01*
X0024185Y0050245D01*
X0024361Y0050015D01*
X0024591Y0049839D01*
X0024859Y0049728D01*
X0025146Y0049691D01*
X0025180Y0049695D01*
X0025272Y0049694D01*
X0025482Y0049681D01*
X0025565Y0049670D01*
X0025639Y0049656D01*
X0025702Y0049639D01*
X0025752Y0049622D01*
X0025789Y0049604D01*
X0025815Y0049588D01*
X0027094Y0048308D01*
X0027094Y0048308D01*
X0027219Y0048225D01*
X0027366Y0048196D01*
X0035721D01*
X0037518Y0046398D01*
X0037518Y0046398D01*
X0037643Y0046315D01*
X0037790Y0046286D01*
X0046541D01*
X0048463Y0044364D01*
Y0040192D01*
X0048377Y0040106D01*
X0048377Y0040106D01*
X0048118Y0039847D01*
X0048035Y0039723D01*
X0048006Y0039576D01*
X0048006Y0039575D01*
Y0037590D01*
X0048006Y0037590D01*
X0048035Y0037443D01*
X0048118Y0037318D01*
X0048437Y0037000D01*
Y0022085D01*
X0048317Y0021965D01*
X0048234Y0021841D01*
X0048205Y0021694D01*
X0048205Y0021693D01*
Y0021047D01*
X0048205Y0021046D01*
X0048234Y0020899D01*
X0048317Y0020775D01*
X0048396Y0020696D01*
Y0017377D01*
X0048392Y0017364D01*
X0048269Y0017265D01*
X0048260Y0017266D01*
X0048064Y0017241D01*
X0047882Y0017165D01*
X0047725Y0017045D01*
X0047605Y0016888D01*
X0047529Y0016706D01*
X0047504Y0016510D01*
X0047529Y0016314D01*
X0047605Y0016132D01*
X0047725Y0015975D01*
X0047882Y0015855D01*
X0048064Y0015779D01*
X0048260Y0015754D01*
X0048456Y0015779D01*
X0048638Y0015855D01*
X0048795Y0015975D01*
X0048915Y0016132D01*
X0048991Y0016314D01*
X0049016Y0016510D01*
X0049004Y0016607D01*
X0049005Y0016611D01*
X0049001Y0016630D01*
X0049002Y0016650D01*
X0048999Y0016670D01*
X0048998Y0016676D01*
X0048999Y0016681D01*
X0049000Y0016686D01*
X0049002Y0016693D01*
X0049005Y0016701D01*
X0049011Y0016712D01*
X0049021Y0016726D01*
X0049025Y0016731D01*
X0049052Y0016758D01*
X0049052Y0016758D01*
X0049135Y0016883D01*
X0049164Y0017030D01*
Y0020855D01*
X0049164Y0020855D01*
X0049135Y0021003D01*
X0049052Y0021127D01*
X0049052Y0021127D01*
X0048973Y0021206D01*
Y0021534D01*
X0049093Y0021654D01*
X0049093Y0021654D01*
X0049176Y0021778D01*
X0049205Y0021926D01*
Y0037159D01*
X0049176Y0037306D01*
X0049093Y0037431D01*
X0049093Y0037431D01*
X0048774Y0037749D01*
Y0039416D01*
X0048921Y0039563D01*
X0048921Y0039563D01*
X0049119Y0039761D01*
X0049119Y0039761D01*
X0049202Y0039885D01*
X0049231Y0040033D01*
X0049231Y0040033D01*
Y0044523D01*
X0049202Y0044670D01*
X0049119Y0044795D01*
X0049119Y0044795D01*
X0046972Y0046942D01*
X0046847Y0047025D01*
X0046700Y0047054D01*
X0046700Y0047054D01*
X0037949D01*
X0036152Y0048852D01*
X0036027Y0048935D01*
X0035880Y0048964D01*
X0035880Y0048964D01*
X0027525D01*
X0026358Y0050131D01*
X0026342Y0050157D01*
X0026324Y0050194D01*
X0026307Y0050244D01*
X0026290Y0050307D01*
X0026276Y0050381D01*
X0026265Y0050464D01*
X0026252Y0050674D01*
X0026251Y0050766D01*
X0026255Y0050800D01*
X0026218Y0051087D01*
X0026107Y0051355D01*
X0025931Y0051585D01*
X0025701Y0051761D01*
X0025433Y0051872D01*
X0025146Y0051909D01*
D02*
G37*
G36*
X0008306Y0036752D02*
X0008084Y0036722D01*
X0007877Y0036637D01*
X0007700Y0036500D01*
X0007563Y0036323D01*
X0007478Y0036116D01*
X0007448Y0035894D01*
X0007478Y0035672D01*
X0007563Y0035466D01*
X0007644Y0035360D01*
Y0033728D01*
X0007563Y0033623D01*
X0007478Y0033416D01*
X0007448Y0033194D01*
X0007478Y0032972D01*
X0007563Y0032766D01*
X0007700Y0032588D01*
X0007877Y0032452D01*
X0008084Y0032366D01*
X0008306Y0032337D01*
X0008528Y0032366D01*
X0008734Y0032452D01*
X0008839Y0032532D01*
X0010972D01*
X0011077Y0032452D01*
X0011284Y0032366D01*
X0011506Y0032337D01*
X0011728Y0032366D01*
X0011935Y0032452D01*
X0012112Y0032588D01*
X0012248Y0032765D01*
X0012334Y0032972D01*
X0012339Y0033010D01*
X0012456Y0033059D01*
X0012486Y0033036D01*
X0012729Y0032936D01*
X0012990Y0032901D01*
X0013251Y0032936D01*
X0013494Y0033036D01*
X0013703Y0033197D01*
X0013863Y0033406D01*
X0013896Y0033485D01*
X0017977D01*
X0019699Y0031763D01*
X0019699Y0031763D01*
X0019918Y0031595D01*
X0020174Y0031489D01*
X0020448Y0031453D01*
X0020448Y0031453D01*
X0030041D01*
X0033485Y0028009D01*
Y0026162D01*
X0033485Y0026162D01*
X0033521Y0025888D01*
X0033627Y0025632D01*
X0033795Y0025413D01*
X0035012Y0024197D01*
X0035026Y0024089D01*
X0035126Y0023846D01*
X0035287Y0023637D01*
X0035496Y0023476D01*
X0035739Y0023376D01*
X0036000Y0023341D01*
X0036261Y0023376D01*
X0036504Y0023476D01*
X0036638Y0023579D01*
X0038608D01*
X0038882Y0023615D01*
X0039138Y0023721D01*
X0039357Y0023889D01*
X0039525Y0024108D01*
X0039631Y0024364D01*
X0039667Y0024638D01*
X0039631Y0024912D01*
X0039525Y0025168D01*
X0039357Y0025387D01*
X0039138Y0025555D01*
X0038882Y0025661D01*
X0038608Y0025697D01*
X0036507D01*
X0035603Y0026601D01*
Y0028448D01*
X0035603Y0028448D01*
X0035567Y0028722D01*
X0035461Y0028978D01*
X0035293Y0029197D01*
X0035293Y0029197D01*
X0031229Y0033261D01*
X0031010Y0033429D01*
X0030754Y0033535D01*
X0030480Y0033571D01*
X0030480Y0033571D01*
X0020887D01*
X0019165Y0035293D01*
X0018946Y0035461D01*
X0018690Y0035567D01*
X0018416Y0035603D01*
X0018416Y0035603D01*
X0013344D01*
X0013203Y0035607D01*
X0012936Y0035629D01*
X0012707Y0035666D01*
X0012517Y0035715D01*
X0012366Y0035774D01*
X0012349Y0035784D01*
X0012363Y0035894D01*
X0012334Y0036116D01*
X0012248Y0036323D01*
X0012112Y0036500D01*
X0011935Y0036636D01*
X0011728Y0036722D01*
X0011506Y0036751D01*
X0011284Y0036722D01*
X0011077Y0036636D01*
X0010972Y0036556D01*
X0008840D01*
X0008734Y0036637D01*
X0008528Y0036722D01*
X0008306Y0036752D01*
D02*
G37*
G36*
X0012171Y0024184D02*
X0011918D01*
X0011913Y0024176D01*
X0011905Y0024155D01*
X0011903Y0024130D01*
Y0024184D01*
X0010106D01*
Y0022369D01*
X0011556D01*
X0011791Y0022415D01*
X0011991Y0022549D01*
X0012125Y0022749D01*
X0012171Y0022984D01*
Y0024184D01*
D02*
G37*
G36*
X0054019Y0022446D02*
X0053794D01*
Y0021536D01*
X0054704D01*
Y0021761D01*
X0054681Y0021938D01*
X0054612Y0022103D01*
X0054503Y0022245D01*
X0054361Y0022354D01*
X0054196Y0022423D01*
X0054019Y0022446D01*
D02*
G37*
G36*
X0009706Y0024184D02*
X0007640D01*
Y0022984D01*
X0007687Y0022749D01*
X0007820Y0022549D01*
X0008020Y0022415D01*
X0008256Y0022369D01*
X0009706D01*
Y0024184D01*
D02*
G37*
G36*
Y0026400D02*
X0008256D01*
X0008020Y0026353D01*
X0007820Y0026220D01*
X0007687Y0026020D01*
X0007640Y0025784D01*
Y0024584D01*
X0009706D01*
Y0026400D01*
D02*
G37*
G36*
X0053394Y0026216D02*
X0052759D01*
X0052762Y0026193D01*
X0052848Y0025985D01*
X0052985Y0025807D01*
X0053163Y0025670D01*
X0053371Y0025584D01*
X0053394Y0025581D01*
Y0026216D01*
D02*
G37*
G36*
X0054429D02*
X0053794D01*
Y0025581D01*
X0053817Y0025584D01*
X0054025Y0025670D01*
X0054203Y0025807D01*
X0054340Y0025985D01*
X0054426Y0026193D01*
X0054429Y0026216D01*
D02*
G37*
G36*
X0011556Y0026400D02*
X0010106D01*
Y0024584D01*
X0011903D01*
Y0024638D01*
X0011905Y0024614D01*
X0011913Y0024593D01*
X0011918Y0024584D01*
X0012171D01*
Y0025784D01*
X0012125Y0026020D01*
X0011991Y0026220D01*
X0011791Y0026353D01*
X0011556Y0026400D01*
D02*
G37*
G36*
X0056134Y0027273D02*
X0055912Y0027244D01*
X0055705Y0027158D01*
X0055528Y0027022D01*
X0055392Y0026845D01*
X0055306Y0026638D01*
X0055277Y0026416D01*
X0055306Y0026194D01*
X0055392Y0025987D01*
X0055528Y0025810D01*
X0055705Y0025674D01*
X0055912Y0025588D01*
X0056134Y0025559D01*
X0056356Y0025588D01*
X0056563Y0025674D01*
X0056740Y0025810D01*
X0056876Y0025987D01*
X0056962Y0026194D01*
X0056991Y0026416D01*
X0056962Y0026638D01*
X0056876Y0026845D01*
X0056740Y0027022D01*
X0056563Y0027158D01*
X0056356Y0027244D01*
X0056134Y0027273D01*
D02*
G37*
G36*
X0053394Y0022446D02*
X0053169D01*
X0052992Y0022423D01*
X0052827Y0022354D01*
X0052685Y0022245D01*
X0052576Y0022103D01*
X0052507Y0021938D01*
X0052484Y0021761D01*
Y0021536D01*
X0053394D01*
Y0022446D01*
D02*
G37*
G36*
X0053594Y0019905D02*
X0053307Y0019868D01*
X0053039Y0019757D01*
X0052809Y0019581D01*
X0052633Y0019351D01*
X0052522Y0019083D01*
X0052485Y0018796D01*
X0052522Y0018509D01*
X0052633Y0018241D01*
X0052809Y0018011D01*
X0053039Y0017835D01*
X0053307Y0017724D01*
X0053594Y0017687D01*
X0053881Y0017724D01*
X0054149Y0017835D01*
X0054379Y0018011D01*
X0054555Y0018241D01*
X0054666Y0018509D01*
X0054703Y0018796D01*
X0054666Y0019083D01*
X0054555Y0019351D01*
X0054379Y0019581D01*
X0054149Y0019757D01*
X0053881Y0019868D01*
X0053594Y0019905D01*
D02*
G37*
G36*
X0009706Y0021320D02*
X0008256D01*
X0008020Y0021273D01*
X0007820Y0021140D01*
X0007687Y0020940D01*
X0007640Y0020704D01*
Y0019504D01*
X0009706D01*
Y0021320D01*
D02*
G37*
G36*
Y0019104D02*
X0007640D01*
Y0017904D01*
X0007687Y0017669D01*
X0007820Y0017469D01*
X0008020Y0017335D01*
X0008256Y0017289D01*
X0009706D01*
Y0019104D01*
D02*
G37*
G36*
X0012171D02*
X0010106D01*
Y0017289D01*
X0011556D01*
X0011791Y0017335D01*
X0011991Y0017469D01*
X0012125Y0017669D01*
X0012171Y0017904D01*
Y0019104D01*
D02*
G37*
G36*
X0011556Y0021320D02*
X0010106D01*
Y0019504D01*
X0012171D01*
Y0020704D01*
X0012125Y0020940D01*
X0011991Y0021140D01*
X0011791Y0021273D01*
X0011556Y0021320D01*
D02*
G37*
G36*
X0054704Y0021136D02*
X0053794D01*
Y0020226D01*
X0054019D01*
X0054196Y0020249D01*
X0054361Y0020318D01*
X0054503Y0020427D01*
X0054612Y0020569D01*
X0054681Y0020734D01*
X0054704Y0020911D01*
Y0021136D01*
D02*
G37*
G36*
X0056134Y0022445D02*
X0055847Y0022408D01*
X0055579Y0022297D01*
X0055349Y0022121D01*
X0055173Y0021891D01*
X0055062Y0021623D01*
X0055025Y0021336D01*
X0055062Y0021049D01*
X0055173Y0020781D01*
X0055349Y0020551D01*
X0055579Y0020375D01*
X0055847Y0020264D01*
X0056134Y0020227D01*
X0056421Y0020264D01*
X0056689Y0020375D01*
X0056919Y0020551D01*
X0057095Y0020781D01*
X0057206Y0021049D01*
X0057243Y0021336D01*
X0057206Y0021623D01*
X0057095Y0021891D01*
X0056919Y0022121D01*
X0056689Y0022297D01*
X0056421Y0022408D01*
X0056134Y0022445D01*
D02*
G37*
G36*
X0028448Y0031236D02*
X0028252Y0031211D01*
X0028070Y0031135D01*
X0027913Y0031015D01*
X0027793Y0030858D01*
X0027717Y0030676D01*
X0027692Y0030480D01*
X0027717Y0030284D01*
X0027793Y0030102D01*
X0027913Y0029945D01*
X0027922Y0029938D01*
X0027953Y0029907D01*
X0027981Y0029874D01*
X0028005Y0029843D01*
X0028024Y0029815D01*
X0028039Y0029789D01*
X0028050Y0029766D01*
X0028058Y0029745D01*
X0028062Y0029727D01*
X0028064Y0029719D01*
Y0026321D01*
X0024954Y0023211D01*
X0024913Y0023173D01*
X0024882Y0023148D01*
X0024881Y0023148D01*
X0023334D01*
Y0021048D01*
X0024812D01*
X0024822Y0021046D01*
X0024831Y0021048D01*
X0024880D01*
X0024945Y0020993D01*
X0025128Y0020810D01*
X0025128Y0020810D01*
X0025253Y0020727D01*
X0025400Y0020698D01*
X0029900D01*
X0029920Y0020694D01*
X0029949Y0020684D01*
X0029986Y0020668D01*
X0030028Y0020645D01*
X0030075Y0020614D01*
X0030125Y0020578D01*
X0030245Y0020474D01*
X0030296Y0020424D01*
X0030310Y0020404D01*
X0030509Y0020252D01*
X0030740Y0020156D01*
X0030988Y0020124D01*
X0031236Y0020156D01*
X0031467Y0020252D01*
X0031666Y0020404D01*
X0031818Y0020603D01*
X0031914Y0020834D01*
X0031946Y0021082D01*
X0031914Y0021330D01*
X0031818Y0021561D01*
X0031666Y0021760D01*
X0031467Y0021912D01*
X0031236Y0022008D01*
X0030988Y0022040D01*
X0030740Y0022008D01*
X0030509Y0021912D01*
X0030310Y0021760D01*
X0030297Y0021742D01*
X0030181Y0021632D01*
X0030127Y0021588D01*
X0030075Y0021550D01*
X0030028Y0021519D01*
X0029986Y0021496D01*
X0029949Y0021480D01*
X0029920Y0021470D01*
X0029900Y0021466D01*
X0025559D01*
X0025498Y0021527D01*
X0025460Y0021568D01*
X0025436Y0021599D01*
X0025434Y0021601D01*
Y0021651D01*
X0025436Y0021660D01*
X0025434Y0021670D01*
Y0022595D01*
X0025488Y0022658D01*
X0028720Y0025890D01*
X0028720Y0025890D01*
X0028803Y0026015D01*
X0028832Y0026162D01*
X0028832Y0026162D01*
Y0029719D01*
X0028834Y0029727D01*
X0028838Y0029745D01*
X0028846Y0029766D01*
X0028857Y0029789D01*
X0028872Y0029815D01*
X0028891Y0029843D01*
X0028915Y0029874D01*
X0028943Y0029907D01*
X0028974Y0029938D01*
X0028983Y0029945D01*
X0029103Y0030102D01*
X0029179Y0030284D01*
X0029204Y0030480D01*
X0029179Y0030676D01*
X0029103Y0030858D01*
X0028983Y0031015D01*
X0028826Y0031135D01*
X0028644Y0031211D01*
X0028448Y0031236D01*
D02*
G37*
G36*
X0053394Y0021136D02*
X0052484D01*
Y0020911D01*
X0052507Y0020734D01*
X0052576Y0020569D01*
X0052685Y0020427D01*
X0052827Y0020318D01*
X0052992Y0020249D01*
X0053169Y0020226D01*
X0053394D01*
Y0021136D01*
D02*
G37*
G36*
X0018353Y0010038D02*
X0018315Y0009989D01*
X0018214Y0009744D01*
X0018180Y0009482D01*
X0018214Y0009220D01*
X0018315Y0008976D01*
X0018353Y0008926D01*
X0018909Y0009482D01*
X0018353Y0010038D01*
D02*
G37*
G36*
X0032837Y0002340D02*
X0031950D01*
Y0001453D01*
X0032038Y0001464D01*
X0032307Y0001576D01*
X0032537Y0001753D01*
X0032714Y0001983D01*
X0032826Y0002252D01*
X0032837Y0002340D01*
D02*
G37*
G36*
X0034090D02*
X0033203D01*
X0033214Y0002252D01*
X0033326Y0001983D01*
X0033503Y0001753D01*
X0033733Y0001576D01*
X0034002Y0001464D01*
X0034090Y0001453D01*
Y0002340D01*
D02*
G37*
G36*
X0031550D02*
X0030663D01*
X0030674Y0002252D01*
X0030786Y0001983D01*
X0030963Y0001753D01*
X0031193Y0001576D01*
X0031462Y0001464D01*
X0031550Y0001453D01*
Y0002340D01*
D02*
G37*
G36*
X0026470D02*
X0025583D01*
X0025594Y0002252D01*
X0025706Y0001983D01*
X0025883Y0001753D01*
X0026113Y0001576D01*
X0026382Y0001464D01*
X0026470Y0001453D01*
Y0002340D01*
D02*
G37*
G36*
X0027757D02*
X0026870D01*
Y0001453D01*
X0026958Y0001464D01*
X0027227Y0001576D01*
X0027457Y0001753D01*
X0027634Y0001983D01*
X0027746Y0002252D01*
X0027757Y0002340D01*
D02*
G37*
G36*
X0015940Y0003805D02*
X0015440D01*
Y0002740D01*
X0016505D01*
Y0003240D01*
X0016462Y0003456D01*
X0016339Y0003639D01*
X0016156Y0003762D01*
X0015940Y0003805D01*
D02*
G37*
G36*
X0026463Y0003626D02*
X0026382Y0003616D01*
X0026113Y0003504D01*
X0025883Y0003327D01*
X0025706Y0003097D01*
X0025594Y0002828D01*
X0025583Y0002740D01*
X0026470D01*
Y0003147D01*
X0026075D01*
X0026164Y0003237D01*
X0026314Y0003407D01*
X0026375Y0003486D01*
X0026426Y0003562D01*
X0026463Y0003626D01*
D02*
G37*
G36*
X0015040Y0003805D02*
X0014540D01*
X0014324Y0003762D01*
X0014141Y0003639D01*
X0014018Y0003456D01*
X0013975Y0003240D01*
Y0002740D01*
X0015040D01*
Y0003805D01*
D02*
G37*
G36*
X0036630Y0002340D02*
X0035743D01*
X0035754Y0002252D01*
X0035866Y0001983D01*
X0036043Y0001753D01*
X0036273Y0001576D01*
X0036542Y0001464D01*
X0036630Y0001453D01*
Y0002340D01*
D02*
G37*
G36*
X0037917D02*
X0037030D01*
Y0001453D01*
X0037118Y0001464D01*
X0037387Y0001576D01*
X0037617Y0001753D01*
X0037794Y0001983D01*
X0037906Y0002252D01*
X0037917Y0002340D01*
D02*
G37*
G36*
X0042335Y0003646D02*
X0041485D01*
X0041309Y0003623D01*
X0041145Y0003555D01*
X0041004Y0003446D01*
X0040895Y0003305D01*
X0040827Y0003141D01*
X0040804Y0002965D01*
Y0002115D01*
X0040827Y0001939D01*
X0040895Y0001775D01*
X0041004Y0001634D01*
X0041145Y0001525D01*
X0041309Y0001457D01*
X0041485Y0001434D01*
X0042335D01*
X0042511Y0001457D01*
X0042675Y0001525D01*
X0042816Y0001634D01*
X0042925Y0001775D01*
X0042993Y0001939D01*
X0043016Y0002115D01*
Y0002965D01*
X0042993Y0003141D01*
X0042925Y0003305D01*
X0042816Y0003446D01*
X0042675Y0003555D01*
X0042511Y0003623D01*
X0042335Y0003646D01*
D02*
G37*
G36*
X0021590Y0003649D02*
X0021303Y0003612D01*
X0021035Y0003501D01*
X0020805Y0003325D01*
X0020629Y0003095D01*
X0020518Y0002827D01*
X0020481Y0002540D01*
X0020518Y0002253D01*
X0020629Y0001985D01*
X0020805Y0001755D01*
X0021035Y0001579D01*
X0021303Y0001468D01*
X0021590Y0001431D01*
X0021877Y0001468D01*
X0022145Y0001579D01*
X0022375Y0001755D01*
X0022551Y0001985D01*
X0022662Y0002253D01*
X0022699Y0002540D01*
X0022662Y0002827D01*
X0022551Y0003095D01*
X0022375Y0003325D01*
X0022145Y0003501D01*
X0021877Y0003612D01*
X0021590Y0003649D01*
D02*
G37*
G36*
X0044450D02*
X0044163Y0003612D01*
X0043895Y0003501D01*
X0043665Y0003325D01*
X0043489Y0003095D01*
X0043378Y0002827D01*
X0043341Y0002540D01*
X0043378Y0002253D01*
X0043489Y0001985D01*
X0043665Y0001755D01*
X0043895Y0001579D01*
X0044163Y0001468D01*
X0044450Y0001431D01*
X0044737Y0001468D01*
X0045005Y0001579D01*
X0045235Y0001755D01*
X0045411Y0001985D01*
X0045522Y0002253D01*
X0045559Y0002540D01*
X0045522Y0002827D01*
X0045411Y0003095D01*
X0045235Y0003325D01*
X0045005Y0003501D01*
X0044737Y0003612D01*
X0044450Y0003649D01*
D02*
G37*
G36*
X0016505Y0002340D02*
X0015440D01*
Y0001275D01*
X0015940D01*
X0016156Y0001318D01*
X0016339Y0001441D01*
X0016462Y0001624D01*
X0016505Y0001840D01*
Y0002340D01*
D02*
G37*
G36*
X0005080Y0004399D02*
X0004717Y0004363D01*
X0004369Y0004257D01*
X0004047Y0004086D01*
X0003766Y0003854D01*
X0003534Y0003573D01*
X0003363Y0003251D01*
X0003257Y0002903D01*
X0003221Y0002540D01*
X0003257Y0002177D01*
X0003363Y0001829D01*
X0003534Y0001507D01*
X0003766Y0001226D01*
X0004047Y0000994D01*
X0004369Y0000823D01*
X0004717Y0000717D01*
X0005080Y0000681D01*
X0005443Y0000717D01*
X0005791Y0000823D01*
X0006113Y0000994D01*
X0006394Y0001226D01*
X0006626Y0001507D01*
X0006797Y0001829D01*
X0006903Y0002177D01*
X0006939Y0002540D01*
X0006903Y0002903D01*
X0006797Y0003251D01*
X0006626Y0003573D01*
X0006394Y0003854D01*
X0006113Y0004086D01*
X0005791Y0004257D01*
X0005443Y0004363D01*
X0005080Y0004399D01*
D02*
G37*
G36*
X0015040Y0002340D02*
X0013975D01*
Y0001840D01*
X0014018Y0001624D01*
X0014141Y0001441D01*
X0014324Y0001318D01*
X0014540Y0001275D01*
X0015040D01*
Y0002340D01*
D02*
G37*
G36*
X0054610Y0003649D02*
X0054323Y0003612D01*
X0054055Y0003501D01*
X0053825Y0003325D01*
X0053649Y0003095D01*
X0053538Y0002827D01*
X0053501Y0002540D01*
X0053538Y0002253D01*
X0053649Y0001985D01*
X0053825Y0001755D01*
X0054055Y0001579D01*
X0054323Y0001468D01*
X0054610Y0001431D01*
X0054897Y0001468D01*
X0055165Y0001579D01*
X0055395Y0001755D01*
X0055571Y0001985D01*
X0055682Y0002253D01*
X0055719Y0002540D01*
X0055682Y0002827D01*
X0055571Y0003095D01*
X0055395Y0003325D01*
X0055165Y0003501D01*
X0054897Y0003612D01*
X0054610Y0003649D01*
D02*
G37*
G36*
X0019475Y0003646D02*
X0018625D01*
X0018449Y0003623D01*
X0018285Y0003555D01*
X0018144Y0003446D01*
X0018035Y0003305D01*
X0017967Y0003141D01*
X0017944Y0002965D01*
Y0002115D01*
X0017967Y0001939D01*
X0018035Y0001775D01*
X0018144Y0001634D01*
X0018285Y0001525D01*
X0018449Y0001457D01*
X0018625Y0001434D01*
X0019475D01*
X0019651Y0001457D01*
X0019815Y0001525D01*
X0019956Y0001634D01*
X0020065Y0001775D01*
X0020133Y0001939D01*
X0020156Y0002115D01*
Y0002965D01*
X0020133Y0003141D01*
X0020065Y0003305D01*
X0019956Y0003446D01*
X0019815Y0003555D01*
X0019651Y0003623D01*
X0019475Y0003646D01*
D02*
G37*
G36*
X0052070Y0003649D02*
X0051783Y0003612D01*
X0051515Y0003501D01*
X0051285Y0003325D01*
X0051109Y0003095D01*
X0050998Y0002827D01*
X0050961Y0002540D01*
X0050998Y0002253D01*
X0051109Y0001985D01*
X0051285Y0001755D01*
X0051515Y0001579D01*
X0051783Y0001468D01*
X0052070Y0001431D01*
X0052357Y0001468D01*
X0052625Y0001579D01*
X0052855Y0001755D01*
X0053031Y0001985D01*
X0053142Y0002253D01*
X0053179Y0002540D01*
X0053142Y0002827D01*
X0053031Y0003095D01*
X0052855Y0003325D01*
X0052625Y0003501D01*
X0052357Y0003612D01*
X0052070Y0003649D01*
D02*
G37*
G36*
X0046990D02*
X0046703Y0003612D01*
X0046435Y0003501D01*
X0046205Y0003325D01*
X0046029Y0003095D01*
X0045918Y0002827D01*
X0045881Y0002540D01*
X0045918Y0002253D01*
X0046029Y0001985D01*
X0046205Y0001755D01*
X0046435Y0001579D01*
X0046703Y0001468D01*
X0046990Y0001431D01*
X0047277Y0001468D01*
X0047545Y0001579D01*
X0047775Y0001755D01*
X0047951Y0001985D01*
X0048062Y0002253D01*
X0048099Y0002540D01*
X0048062Y0002827D01*
X0047951Y0003095D01*
X0047775Y0003325D01*
X0047545Y0003501D01*
X0047277Y0003612D01*
X0046990Y0003649D01*
D02*
G37*
G36*
X0049530D02*
X0049243Y0003612D01*
X0048975Y0003501D01*
X0048745Y0003325D01*
X0048569Y0003095D01*
X0048458Y0002827D01*
X0048421Y0002540D01*
X0048458Y0002253D01*
X0048569Y0001985D01*
X0048745Y0001755D01*
X0048975Y0001579D01*
X0049243Y0001468D01*
X0049530Y0001431D01*
X0049817Y0001468D01*
X0050085Y0001579D01*
X0050315Y0001755D01*
X0050491Y0001985D01*
X0050602Y0002253D01*
X0050639Y0002540D01*
X0050602Y0002827D01*
X0050491Y0003095D01*
X0050315Y0003325D01*
X0050085Y0003501D01*
X0049817Y0003612D01*
X0049530Y0003649D01*
D02*
G37*
G36*
X0012452Y0010214D02*
X0011141D01*
Y0009164D01*
X0011170Y0008869D01*
X0011256Y0008586D01*
X0011395Y0008324D01*
X0011583Y0008095D01*
X0011812Y0007907D01*
X0012074Y0007768D01*
X0012357Y0007682D01*
X0012452Y0007672D01*
Y0010214D01*
D02*
G37*
G36*
X0015940Y0008885D02*
X0015440D01*
Y0007820D01*
X0016505D01*
Y0008320D01*
X0016462Y0008536D01*
X0016339Y0008719D01*
X0016156Y0008842D01*
X0015940Y0008885D01*
D02*
G37*
G36*
X0016505Y0007420D02*
X0015440D01*
Y0006355D01*
X0015940D01*
X0016156Y0006398D01*
X0016339Y0006521D01*
X0016462Y0006704D01*
X0016505Y0006920D01*
Y0007420D01*
D02*
G37*
G36*
X0010652Y0007225D02*
X0009852D01*
Y0005914D01*
X0012144D01*
X0012134Y0006009D01*
X0012048Y0006292D01*
X0011909Y0006554D01*
X0011721Y0006783D01*
X0011492Y0006971D01*
X0011230Y0007110D01*
X0010947Y0007196D01*
X0010652Y0007225D01*
D02*
G37*
G36*
X0015040Y0007420D02*
X0013975D01*
Y0006920D01*
X0014018Y0006704D01*
X0014141Y0006521D01*
X0014324Y0006398D01*
X0014540Y0006355D01*
X0015040D01*
Y0007420D01*
D02*
G37*
G36*
X0045950Y0009747D02*
X0045728Y0009718D01*
X0045521Y0009632D01*
X0045344Y0009496D01*
X0045208Y0009319D01*
X0045122Y0009112D01*
X0045093Y0008890D01*
X0045122Y0008668D01*
X0045208Y0008461D01*
X0045344Y0008284D01*
X0045521Y0008148D01*
X0045728Y0008062D01*
X0045950Y0008033D01*
X0046172Y0008062D01*
X0046379Y0008148D01*
X0046556Y0008284D01*
X0046692Y0008461D01*
X0046778Y0008668D01*
X0046807Y0008890D01*
X0046778Y0009112D01*
X0046692Y0009319D01*
X0046556Y0009496D01*
X0046379Y0009632D01*
X0046172Y0009718D01*
X0045950Y0009747D01*
D02*
G37*
G36*
X0019192Y0009199D02*
X0018636Y0008643D01*
X0018686Y0008605D01*
X0018930Y0008504D01*
X0019192Y0008470D01*
X0019454Y0008504D01*
X0019699Y0008605D01*
X0019748Y0008643D01*
X0019192Y0009199D01*
D02*
G37*
G36*
X0039370Y0009747D02*
X0039148Y0009718D01*
X0038941Y0009632D01*
X0038764Y0009496D01*
X0038628Y0009319D01*
X0038542Y0009112D01*
X0038513Y0008890D01*
X0038542Y0008668D01*
X0038628Y0008461D01*
X0038764Y0008284D01*
X0038941Y0008148D01*
X0039148Y0008062D01*
X0039370Y0008033D01*
X0039592Y0008062D01*
X0039799Y0008148D01*
X0039976Y0008284D01*
X0040112Y0008461D01*
X0040198Y0008668D01*
X0040227Y0008890D01*
X0040198Y0009112D01*
X0040112Y0009319D01*
X0039976Y0009496D01*
X0039799Y0009632D01*
X0039592Y0009718D01*
X0039370Y0009747D01*
D02*
G37*
G36*
X0006452Y0010214D02*
X0005141D01*
Y0009414D01*
X0005170Y0009119D01*
X0005256Y0008836D01*
X0005395Y0008574D01*
X0005583Y0008345D01*
X0005812Y0008157D01*
X0006074Y0008018D01*
X0006357Y0007932D01*
X0006452Y0007922D01*
Y0010214D01*
D02*
G37*
G36*
X0008163D02*
X0006852D01*
Y0007922D01*
X0006947Y0007932D01*
X0007230Y0008018D01*
X0007492Y0008157D01*
X0007721Y0008345D01*
X0007909Y0008574D01*
X0008048Y0008836D01*
X0008134Y0009119D01*
X0008163Y0009414D01*
Y0010214D01*
D02*
G37*
G36*
X0009452Y0007225D02*
X0008652D01*
X0008357Y0007196D01*
X0008074Y0007110D01*
X0007812Y0006971D01*
X0007583Y0006783D01*
X0007395Y0006554D01*
X0007256Y0006292D01*
X0007170Y0006009D01*
X0007160Y0005914D01*
X0009452D01*
Y0007225D01*
D02*
G37*
G36*
X0035916Y0003162D02*
X0035866Y0003097D01*
X0035754Y0002828D01*
X0035743Y0002740D01*
X0035975D01*
X0035965Y0002901D01*
X0035952Y0003000D01*
X0035935Y0003090D01*
X0035916Y0003162D01*
D02*
G37*
G36*
X0036630Y0003198D02*
X0036172Y0002740D01*
X0036630D01*
Y0003198D01*
D02*
G37*
G36*
X0031950Y0003627D02*
Y0002740D01*
X0032837D01*
X0032826Y0002828D01*
X0032714Y0003097D01*
X0032537Y0003327D01*
X0032307Y0003504D01*
X0032038Y0003616D01*
X0031950Y0003627D01*
D02*
G37*
G36*
X0026877Y0003626D02*
X0026914Y0003562D01*
X0026965Y0003486D01*
X0027026Y0003407D01*
X0027176Y0003237D01*
X0027265Y0003147D01*
X0026870D01*
Y0002740D01*
X0027757D01*
X0027746Y0002828D01*
X0027634Y0003097D01*
X0027457Y0003327D01*
X0027227Y0003504D01*
X0026958Y0003616D01*
X0026877Y0003626D01*
D02*
G37*
G36*
X0031550Y0003627D02*
X0031462Y0003616D01*
X0031193Y0003504D01*
X0030963Y0003327D01*
X0030786Y0003097D01*
X0030674Y0002828D01*
X0030663Y0002740D01*
X0031550D01*
Y0003627D01*
D02*
G37*
G36*
X0012144Y0005514D02*
X0009852D01*
Y0004203D01*
X0010652D01*
X0010947Y0004232D01*
X0011230Y0004318D01*
X0011492Y0004457D01*
X0011721Y0004645D01*
X0011909Y0004874D01*
X0012048Y0005136D01*
X0012134Y0005419D01*
X0012144Y0005514D01*
D02*
G37*
G36*
X0057150Y0009479D02*
X0056787Y0009443D01*
X0056439Y0009337D01*
X0056117Y0009166D01*
X0055836Y0008934D01*
X0055604Y0008653D01*
X0055433Y0008331D01*
X0055327Y0007983D01*
X0055291Y0007620D01*
X0055327Y0007257D01*
X0055433Y0006909D01*
X0055604Y0006587D01*
X0055836Y0006306D01*
X0056117Y0006074D01*
X0056439Y0005903D01*
X0056787Y0005797D01*
X0057150Y0005761D01*
X0057513Y0005797D01*
X0057861Y0005903D01*
X0058183Y0006074D01*
X0058464Y0006306D01*
X0058696Y0006587D01*
X0058867Y0006909D01*
X0058973Y0007257D01*
X0059009Y0007620D01*
X0058973Y0007983D01*
X0058867Y0008331D01*
X0058696Y0008653D01*
X0058464Y0008934D01*
X0058183Y0009166D01*
X0057861Y0009337D01*
X0057513Y0009443D01*
X0057150Y0009479D01*
D02*
G37*
G36*
X0009452Y0005514D02*
X0007160D01*
X0007170Y0005419D01*
X0007256Y0005136D01*
X0007395Y0004874D01*
X0007583Y0004645D01*
X0007812Y0004457D01*
X0008074Y0004318D01*
X0008357Y0004232D01*
X0008652Y0004203D01*
X0009452D01*
Y0005514D01*
D02*
G37*
G36*
X0037030Y0003627D02*
Y0002740D01*
X0037917D01*
X0037906Y0002828D01*
X0037794Y0003097D01*
X0037617Y0003327D01*
X0037387Y0003504D01*
X0037118Y0003616D01*
X0037030Y0003627D01*
D02*
G37*
G36*
X0036630D02*
X0036542Y0003616D01*
X0036273Y0003504D01*
X0036208Y0003454D01*
X0036280Y0003435D01*
X0036370Y0003418D01*
X0036469Y0003405D01*
X0036630Y0003395D01*
Y0003627D01*
D02*
G37*
G36*
X0024184Y0026978D02*
X0023347D01*
X0023357Y0026903D01*
X0023463Y0026646D01*
X0023632Y0026426D01*
X0023852Y0026257D01*
X0024109Y0026151D01*
X0024184Y0026141D01*
Y0026978D01*
D02*
G37*
G36*
X0055070Y0048096D02*
X0054900Y0048073D01*
X0054742Y0048008D01*
X0054606Y0047904D01*
X0054502Y0047768D01*
X0054437Y0047610D01*
X0054414Y0047440D01*
X0054437Y0047270D01*
X0054502Y0047112D01*
X0054606Y0046976D01*
X0054643Y0046949D01*
X0054654Y0046935D01*
X0054677Y0046914D01*
X0054691Y0046901D01*
X0054701Y0046888D01*
X0054709Y0046877D01*
X0054715Y0046867D01*
X0054720Y0046857D01*
X0054723Y0046847D01*
X0054726Y0046836D01*
X0054726Y0046835D01*
Y0044830D01*
X0054726Y0044830D01*
X0054755Y0044683D01*
X0054838Y0044558D01*
X0054881Y0044516D01*
Y0038044D01*
X0054848Y0038012D01*
X0054765Y0037887D01*
X0054736Y0037740D01*
X0054736Y0037740D01*
Y0033780D01*
X0054736Y0033780D01*
X0054765Y0033633D01*
X0054848Y0033508D01*
X0055862Y0032494D01*
X0055862Y0032494D01*
X0055987Y0032411D01*
X0056134Y0032382D01*
X0056991D01*
X0057782Y0031591D01*
Y0020987D01*
X0056803Y0020008D01*
X0056777Y0019992D01*
X0056740Y0019974D01*
X0056690Y0019957D01*
X0056627Y0019940D01*
X0056553Y0019926D01*
X0056470Y0019915D01*
X0056260Y0019902D01*
X0056168Y0019901D01*
X0056134Y0019905D01*
X0055847Y0019868D01*
X0055579Y0019757D01*
X0055349Y0019581D01*
X0055173Y0019351D01*
X0055062Y0019083D01*
X0055025Y0018796D01*
X0055062Y0018509D01*
X0055173Y0018241D01*
X0055349Y0018011D01*
X0055579Y0017835D01*
X0055847Y0017724D01*
X0056134Y0017687D01*
X0056421Y0017724D01*
X0056689Y0017835D01*
X0056919Y0018011D01*
X0057095Y0018241D01*
X0057206Y0018509D01*
X0057243Y0018796D01*
X0057239Y0018830D01*
X0057240Y0018922D01*
X0057253Y0019132D01*
X0057264Y0019215D01*
X0057278Y0019289D01*
X0057295Y0019352D01*
X0057312Y0019402D01*
X0057330Y0019439D01*
X0057346Y0019465D01*
X0058438Y0020556D01*
X0058438Y0020556D01*
X0058521Y0020681D01*
X0058550Y0020828D01*
X0058550Y0020828D01*
Y0031750D01*
X0058521Y0031897D01*
X0058438Y0032022D01*
X0058438Y0032022D01*
X0057422Y0033038D01*
X0057297Y0033121D01*
X0057150Y0033150D01*
X0057150Y0033150D01*
X0056293D01*
X0055504Y0033939D01*
Y0034453D01*
X0055631Y0034494D01*
X0055836Y0034246D01*
X0056117Y0034014D01*
X0056439Y0033843D01*
X0056787Y0033737D01*
X0057150Y0033701D01*
X0057513Y0033737D01*
X0057861Y0033843D01*
X0058183Y0034014D01*
X0058464Y0034246D01*
X0058696Y0034527D01*
X0058867Y0034849D01*
X0058973Y0035197D01*
X0059009Y0035560D01*
X0058973Y0035923D01*
X0058867Y0036271D01*
X0058696Y0036593D01*
X0058464Y0036874D01*
X0058183Y0037106D01*
X0057861Y0037277D01*
X0057513Y0037383D01*
X0057150Y0037419D01*
X0056787Y0037383D01*
X0056439Y0037277D01*
X0056117Y0037106D01*
X0055836Y0036874D01*
X0055631Y0036626D01*
X0055504Y0036667D01*
Y0037581D01*
X0055537Y0037613D01*
X0055537Y0037613D01*
X0055620Y0037738D01*
X0055649Y0037885D01*
Y0044675D01*
X0055649Y0044675D01*
X0055620Y0044822D01*
X0055537Y0044947D01*
X0055494Y0044989D01*
Y0046866D01*
X0055495Y0046868D01*
X0055498Y0046884D01*
X0055502Y0046900D01*
X0055509Y0046918D01*
X0055517Y0046936D01*
X0055527Y0046955D01*
X0055540Y0046976D01*
X0055555Y0046998D01*
X0055577Y0047026D01*
X0055589Y0047048D01*
X0055638Y0047112D01*
X0055703Y0047270D01*
X0055726Y0047440D01*
X0055703Y0047610D01*
X0055638Y0047768D01*
X0055534Y0047904D01*
X0055398Y0048008D01*
X0055240Y0048073D01*
X0055070Y0048096D01*
D02*
G37*
G36*
X0053130Y0048966D02*
X0052960Y0048943D01*
X0052802Y0048878D01*
X0052666Y0048774D01*
X0052562Y0048638D01*
X0052497Y0048480D01*
X0052474Y0048310D01*
X0052497Y0048140D01*
X0052562Y0047982D01*
X0052666Y0047846D01*
X0052670Y0047843D01*
X0052689Y0047824D01*
X0052704Y0047806D01*
X0052716Y0047790D01*
X0052725Y0047774D01*
X0052733Y0047760D01*
X0052738Y0047746D01*
X0052743Y0047733D01*
X0052745Y0047719D01*
X0052746Y0047718D01*
Y0047470D01*
X0052746Y0047470D01*
X0052775Y0047323D01*
X0052858Y0047198D01*
X0053315Y0046742D01*
Y0042341D01*
X0053315Y0042341D01*
X0053344Y0042194D01*
X0053427Y0042069D01*
X0053733Y0041764D01*
Y0040755D01*
X0053655Y0040638D01*
X0053626Y0040491D01*
X0053626Y0040491D01*
Y0031139D01*
X0053626Y0031139D01*
X0053655Y0030992D01*
X0053738Y0030867D01*
X0053763Y0030843D01*
Y0030176D01*
X0053606Y0030020D01*
X0053600Y0030015D01*
X0053583Y0030006D01*
X0053564Y0029996D01*
X0053539Y0029988D01*
X0053511Y0029980D01*
X0053477Y0029973D01*
X0053439Y0029969D01*
X0053395Y0029966D01*
X0053351Y0029965D01*
X0053340Y0029966D01*
X0053144Y0029941D01*
X0052962Y0029865D01*
X0052805Y0029745D01*
X0052685Y0029588D01*
X0052609Y0029406D01*
X0052584Y0029210D01*
X0052609Y0029014D01*
X0052685Y0028832D01*
X0052805Y0028675D01*
X0052962Y0028555D01*
X0053144Y0028479D01*
X0053340Y0028454D01*
X0053536Y0028479D01*
X0053718Y0028555D01*
X0053875Y0028675D01*
X0053995Y0028832D01*
X0054071Y0029014D01*
X0054096Y0029210D01*
X0054095Y0029221D01*
X0054096Y0029265D01*
X0054099Y0029309D01*
X0054103Y0029347D01*
X0054110Y0029381D01*
X0054118Y0029409D01*
X0054126Y0029434D01*
X0054136Y0029453D01*
X0054145Y0029470D01*
X0054150Y0029476D01*
X0054419Y0029745D01*
X0054419Y0029745D01*
X0054502Y0029870D01*
X0054531Y0030017D01*
X0054531Y0030017D01*
Y0031002D01*
X0054502Y0031149D01*
X0054419Y0031274D01*
X0054419Y0031274D01*
X0054394Y0031298D01*
Y0040335D01*
X0054472Y0040451D01*
X0054501Y0040598D01*
Y0041923D01*
X0054472Y0042070D01*
X0054389Y0042195D01*
X0054389Y0042195D01*
X0054083Y0042500D01*
Y0046901D01*
X0054083Y0046901D01*
X0054054Y0047048D01*
X0053971Y0047173D01*
X0053514Y0047629D01*
Y0047718D01*
X0053515Y0047719D01*
X0053517Y0047733D01*
X0053522Y0047746D01*
X0053527Y0047760D01*
X0053535Y0047774D01*
X0053544Y0047790D01*
X0053556Y0047806D01*
X0053571Y0047824D01*
X0053590Y0047843D01*
X0053594Y0047846D01*
X0053698Y0047982D01*
X0053763Y0048140D01*
X0053786Y0048310D01*
X0053763Y0048480D01*
X0053698Y0048638D01*
X0053594Y0048774D01*
X0053458Y0048878D01*
X0053300Y0048943D01*
X0053130Y0048966D01*
D02*
G37*
G36*
X0006350Y0052659D02*
X0005987Y0052623D01*
X0005639Y0052517D01*
X0005317Y0052346D01*
X0005036Y0052114D01*
X0004804Y0051833D01*
X0004633Y0051511D01*
X0004527Y0051163D01*
X0004491Y0050800D01*
X0004527Y0050437D01*
X0004633Y0050089D01*
X0004804Y0049767D01*
X0005036Y0049486D01*
X0005317Y0049254D01*
X0005639Y0049083D01*
X0005987Y0048977D01*
X0006350Y0048941D01*
X0006713Y0048977D01*
X0007061Y0049083D01*
X0007383Y0049254D01*
X0007664Y0049486D01*
X0007896Y0049767D01*
X0008067Y0050089D01*
X0008173Y0050437D01*
X0008209Y0050800D01*
X0008173Y0051163D01*
X0008067Y0051511D01*
X0007896Y0051833D01*
X0007664Y0052114D01*
X0007383Y0052346D01*
X0007061Y0052517D01*
X0006713Y0052623D01*
X0006350Y0052659D01*
D02*
G37*
G36*
X0008306Y0041832D02*
X0008084Y0041803D01*
X0007877Y0041717D01*
X0007700Y0041581D01*
X0007563Y0041403D01*
X0007478Y0041196D01*
X0007448Y0040975D01*
X0007478Y0040753D01*
X0007563Y0040546D01*
X0007644Y0040441D01*
Y0038808D01*
X0007563Y0038703D01*
X0007478Y0038496D01*
X0007448Y0038275D01*
X0007478Y0038053D01*
X0007563Y0037846D01*
X0007700Y0037668D01*
X0007877Y0037532D01*
X0008084Y0037446D01*
X0008306Y0037417D01*
X0008528Y0037446D01*
X0008734Y0037532D01*
X0008839Y0037612D01*
X0010972D01*
X0011077Y0037532D01*
X0011284Y0037446D01*
X0011506Y0037417D01*
X0011728Y0037446D01*
X0011935Y0037532D01*
X0012112Y0037668D01*
X0012248Y0037846D01*
X0012334Y0038053D01*
X0012347Y0038151D01*
X0012483Y0038207D01*
X0012536Y0038167D01*
X0012779Y0038066D01*
X0013040Y0038031D01*
X0013301Y0038066D01*
X0013544Y0038167D01*
X0013753Y0038327D01*
X0013913Y0038536D01*
X0013926Y0038565D01*
X0017087D01*
X0017539Y0038113D01*
X0017758Y0037945D01*
X0018014Y0037839D01*
X0018288Y0037803D01*
X0018288Y0037803D01*
X0022020D01*
X0022146Y0037707D01*
X0022389Y0037606D01*
X0022650Y0037571D01*
X0022911Y0037606D01*
X0023154Y0037707D01*
X0023280Y0037803D01*
X0024638D01*
X0024912Y0037839D01*
X0025168Y0037945D01*
X0025387Y0038113D01*
X0025555Y0038332D01*
X0025661Y0038588D01*
X0025697Y0038862D01*
X0025661Y0039136D01*
X0025555Y0039392D01*
X0025387Y0039611D01*
X0025168Y0039779D01*
X0024912Y0039885D01*
X0024638Y0039921D01*
X0018727D01*
X0018275Y0040373D01*
X0018055Y0040541D01*
X0017800Y0040647D01*
X0017526Y0040683D01*
X0017526Y0040683D01*
X0013344D01*
X0013203Y0040687D01*
X0012936Y0040709D01*
X0012707Y0040746D01*
X0012516Y0040795D01*
X0012366Y0040854D01*
X0012349Y0040864D01*
X0012363Y0040974D01*
X0012334Y0041196D01*
X0012248Y0041403D01*
X0012112Y0041581D01*
X0011935Y0041717D01*
X0011728Y0041803D01*
X0011506Y0041832D01*
X0011284Y0041803D01*
X0011077Y0041717D01*
X0010972Y0041636D01*
X0008840D01*
X0008734Y0041717D01*
X0008528Y0041803D01*
X0008306Y0041832D01*
D02*
G37*
G36*
X0022606Y0051909D02*
X0022319Y0051872D01*
X0022051Y0051761D01*
X0021821Y0051585D01*
X0021645Y0051355D01*
X0021534Y0051087D01*
X0021497Y0050800D01*
X0021534Y0050513D01*
X0021645Y0050245D01*
X0021821Y0050015D01*
X0022051Y0049839D01*
X0022319Y0049728D01*
X0022606Y0049691D01*
X0022640Y0049695D01*
X0022732Y0049694D01*
X0022942Y0049681D01*
X0023025Y0049670D01*
X0023099Y0049656D01*
X0023162Y0049639D01*
X0023212Y0049622D01*
X0023249Y0049604D01*
X0023275Y0049588D01*
X0026324Y0046538D01*
X0026449Y0046455D01*
X0026596Y0046426D01*
X0026596Y0046426D01*
X0035451D01*
X0036478Y0045398D01*
X0036603Y0045315D01*
X0036750Y0045286D01*
X0036750Y0045286D01*
X0043281D01*
X0043430Y0045137D01*
X0043430Y0045136D01*
X0043438Y0045124D01*
X0043444Y0045112D01*
X0043450Y0045098D01*
X0043455Y0045083D01*
X0043459Y0045065D01*
X0043462Y0045045D01*
X0043464Y0045022D01*
X0043465Y0044995D01*
X0043464Y0044990D01*
X0043487Y0044820D01*
X0043552Y0044662D01*
X0043630Y0044561D01*
X0043581Y0044434D01*
X0040399D01*
X0039942Y0044892D01*
X0039817Y0044975D01*
X0039670Y0045004D01*
X0039670Y0045004D01*
X0033639D01*
X0033212Y0045432D01*
X0033087Y0045515D01*
X0032940Y0045544D01*
X0032940Y0045544D01*
X0025419D01*
X0021046Y0049918D01*
X0021043Y0049921D01*
X0021030Y0049943D01*
X0021019Y0049968D01*
X0021012Y0049999D01*
X0021008Y0050039D01*
X0021009Y0050088D01*
X0021017Y0050148D01*
X0021032Y0050216D01*
X0021056Y0050294D01*
X0021091Y0050387D01*
X0021094Y0050408D01*
X0021138Y0050513D01*
X0021175Y0050800D01*
X0021138Y0051087D01*
X0021027Y0051355D01*
X0020851Y0051585D01*
X0020621Y0051761D01*
X0020353Y0051872D01*
X0020066Y0051909D01*
X0019779Y0051872D01*
X0019511Y0051761D01*
X0019281Y0051585D01*
X0019105Y0051355D01*
X0018994Y0051087D01*
X0018957Y0050800D01*
X0018994Y0050513D01*
X0019105Y0050245D01*
X0019281Y0050015D01*
X0019511Y0049839D01*
X0019643Y0049785D01*
X0019664Y0049771D01*
X0019665Y0049771D01*
X0019666Y0049770D01*
X0019811Y0049713D01*
X0020259Y0049526D01*
X0020393Y0049461D01*
X0020432Y0049440D01*
X0020444Y0049432D01*
X0024960Y0044916D01*
X0024926Y0044806D01*
X0024913Y0044789D01*
X0014419D01*
X0013755Y0045453D01*
X0013536Y0045621D01*
X0013280Y0045727D01*
X0013006Y0045763D01*
X0013006Y0045763D01*
X0012872D01*
X0012624Y0045771D01*
X0012473Y0045784D01*
X0012452Y0045787D01*
X0012334Y0045832D01*
X0012364Y0046054D01*
X0012334Y0046276D01*
X0012249Y0046482D01*
X0012112Y0046660D01*
X0011935Y0046796D01*
X0011728Y0046882D01*
X0011506Y0046911D01*
X0011284Y0046882D01*
X0011078Y0046796D01*
X0010973Y0046716D01*
X0008840D01*
X0008735Y0046796D01*
X0008528Y0046882D01*
X0008306Y0046911D01*
X0008084Y0046882D01*
X0007877Y0046796D01*
X0007700Y0046660D01*
X0007564Y0046483D01*
X0007478Y0046276D01*
X0007449Y0046054D01*
X0007478Y0045832D01*
X0007564Y0045625D01*
X0007644Y0045520D01*
Y0043888D01*
X0007564Y0043783D01*
X0007478Y0043576D01*
X0007449Y0043354D01*
X0007478Y0043132D01*
X0007564Y0042925D01*
X0007700Y0042748D01*
X0007877Y0042612D01*
X0008084Y0042526D01*
X0008306Y0042497D01*
X0008528Y0042526D01*
X0008735Y0042612D01*
X0008840Y0042692D01*
X0010972D01*
X0011078Y0042611D01*
X0011284Y0042526D01*
X0011506Y0042496D01*
X0011728Y0042526D01*
X0011935Y0042611D01*
X0012112Y0042748D01*
X0012208Y0042873D01*
X0012359Y0042885D01*
X0012427Y0042797D01*
X0012636Y0042637D01*
X0012879Y0042536D01*
X0013140Y0042501D01*
X0013401Y0042536D01*
X0013644Y0042637D01*
X0013732Y0042704D01*
X0013980Y0042671D01*
X0025791D01*
X0030349Y0038113D01*
X0030349Y0038113D01*
X0030568Y0037945D01*
X0030824Y0037839D01*
X0031098Y0037803D01*
X0031098Y0037803D01*
X0035238D01*
X0035337Y0037566D01*
X0035497Y0037357D01*
X0035660Y0037231D01*
X0035617Y0037104D01*
X0029909D01*
X0027062Y0039952D01*
X0027061Y0039953D01*
X0027052Y0039966D01*
X0027044Y0039980D01*
X0027037Y0039996D01*
X0027031Y0040014D01*
X0027025Y0040034D01*
X0027020Y0040057D01*
X0027016Y0040082D01*
X0027013Y0040117D01*
X0027006Y0040140D01*
X0026993Y0040240D01*
X0026928Y0040398D01*
X0026824Y0040534D01*
X0026688Y0040638D01*
X0026530Y0040703D01*
X0026360Y0040726D01*
X0026190Y0040703D01*
X0026032Y0040638D01*
X0025896Y0040534D01*
X0025792Y0040398D01*
X0025727Y0040240D01*
X0025704Y0040070D01*
X0025727Y0039900D01*
X0025792Y0039742D01*
X0025896Y0039606D01*
X0026032Y0039502D01*
X0026190Y0039437D01*
X0026360Y0039414D01*
X0026392Y0039419D01*
X0026404Y0039417D01*
X0026436Y0039418D01*
X0026456Y0039418D01*
X0026474Y0039416D01*
X0026488Y0039413D01*
X0026501Y0039409D01*
X0026513Y0039405D01*
X0026523Y0039400D01*
X0026533Y0039393D01*
X0026533Y0039393D01*
X0029478Y0036448D01*
X0029603Y0036365D01*
X0029750Y0036336D01*
X0029750Y0036336D01*
X0037558D01*
Y0035272D01*
X0039036D01*
X0039046Y0035270D01*
X0039055Y0035272D01*
X0039104D01*
X0039169Y0035217D01*
X0039606Y0034780D01*
X0039606Y0034780D01*
X0039731Y0034697D01*
X0039878Y0034668D01*
X0039878Y0034668D01*
X0043870D01*
X0043890Y0034664D01*
X0043919Y0034654D01*
X0043956Y0034638D01*
X0043998Y0034615D01*
X0044045Y0034584D01*
X0044095Y0034548D01*
X0044215Y0034444D01*
X0044266Y0034394D01*
X0044280Y0034374D01*
X0044479Y0034222D01*
X0044710Y0034126D01*
X0044958Y0034094D01*
X0045206Y0034126D01*
X0045437Y0034222D01*
X0045636Y0034374D01*
X0045788Y0034573D01*
X0045884Y0034804D01*
X0045916Y0035052D01*
X0045884Y0035300D01*
X0045788Y0035531D01*
X0045636Y0035730D01*
X0045437Y0035882D01*
X0045206Y0035978D01*
X0044958Y0036010D01*
X0044710Y0035978D01*
X0044479Y0035882D01*
X0044280Y0035730D01*
X0044267Y0035712D01*
X0044151Y0035602D01*
X0044097Y0035558D01*
X0044045Y0035520D01*
X0043998Y0035489D01*
X0043956Y0035466D01*
X0043919Y0035450D01*
X0043890Y0035440D01*
X0043870Y0035436D01*
X0040037D01*
X0039722Y0035751D01*
X0039684Y0035792D01*
X0039660Y0035823D01*
X0039658Y0035825D01*
Y0035875D01*
X0039660Y0035884D01*
X0039658Y0035894D01*
Y0037372D01*
X0037558D01*
Y0037104D01*
X0036803D01*
X0036760Y0037231D01*
X0036923Y0037357D01*
X0037083Y0037566D01*
X0037182Y0037803D01*
X0038608D01*
X0038882Y0037839D01*
X0039138Y0037945D01*
X0039357Y0038113D01*
X0039525Y0038332D01*
X0039631Y0038588D01*
X0039667Y0038862D01*
X0039631Y0039136D01*
X0039525Y0039392D01*
X0039357Y0039611D01*
X0039138Y0039779D01*
X0038882Y0039885D01*
X0038608Y0039921D01*
X0031537D01*
X0026979Y0044479D01*
X0026760Y0044647D01*
X0026756Y0044649D01*
X0026781Y0044776D01*
X0032781D01*
X0033208Y0044348D01*
X0033208Y0044348D01*
X0033333Y0044265D01*
X0033480Y0044236D01*
X0039511D01*
X0039968Y0043778D01*
X0039968Y0043778D01*
X0040093Y0043695D01*
X0040240Y0043666D01*
X0044532D01*
X0044557Y0043539D01*
X0044477Y0043505D01*
X0044278Y0043352D01*
X0044125Y0043153D01*
X0044029Y0042921D01*
X0044022Y0042872D01*
X0045894D01*
X0045887Y0042921D01*
X0045791Y0043153D01*
X0045696Y0043278D01*
X0045752Y0043413D01*
X0045780Y0043417D01*
X0045938Y0043482D01*
X0046074Y0043586D01*
X0046178Y0043722D01*
X0046243Y0043880D01*
X0046266Y0044050D01*
X0046243Y0044220D01*
X0046178Y0044378D01*
X0046074Y0044514D01*
X0045938Y0044618D01*
X0045780Y0044683D01*
X0045610Y0044706D01*
X0045440Y0044683D01*
X0045282Y0044618D01*
X0045146Y0044514D01*
X0045143Y0044510D01*
X0045124Y0044491D01*
X0045106Y0044476D01*
X0045090Y0044464D01*
X0045074Y0044455D01*
X0045060Y0044447D01*
X0045046Y0044442D01*
X0045033Y0044437D01*
X0045019Y0044435D01*
X0045018Y0044434D01*
X0044659D01*
X0044610Y0044561D01*
X0044688Y0044662D01*
X0044753Y0044820D01*
X0044776Y0044990D01*
X0044753Y0045160D01*
X0044688Y0045318D01*
X0044584Y0045454D01*
X0044448Y0045558D01*
X0044290Y0045623D01*
X0044120Y0045646D01*
X0044115Y0045645D01*
X0044088Y0045646D01*
X0044065Y0045648D01*
X0044045Y0045651D01*
X0044027Y0045655D01*
X0044012Y0045660D01*
X0043998Y0045666D01*
X0043986Y0045672D01*
X0043974Y0045680D01*
X0043973Y0045680D01*
X0043712Y0045942D01*
X0043587Y0046025D01*
X0043440Y0046054D01*
X0043440Y0046054D01*
X0036909D01*
X0035882Y0047082D01*
X0035757Y0047165D01*
X0035610Y0047194D01*
X0035610Y0047194D01*
X0026755D01*
X0023818Y0050131D01*
X0023802Y0050157D01*
X0023784Y0050194D01*
X0023767Y0050244D01*
X0023750Y0050307D01*
X0023736Y0050381D01*
X0023725Y0050464D01*
X0023712Y0050674D01*
X0023711Y0050766D01*
X0023715Y0050800D01*
X0023678Y0051087D01*
X0023567Y0051355D01*
X0023391Y0051585D01*
X0023161Y0051761D01*
X0022893Y0051872D01*
X0022606Y0051909D01*
D02*
G37*
G36*
X0025688Y0037372D02*
X0023588D01*
Y0035272D01*
X0025066D01*
X0025076Y0035270D01*
X0025085Y0035272D01*
X0025134D01*
X0025199Y0035217D01*
X0025636Y0034780D01*
X0025636Y0034780D01*
X0025761Y0034697D01*
X0025908Y0034668D01*
X0025908Y0034668D01*
X0029900D01*
X0029920Y0034664D01*
X0029949Y0034654D01*
X0029986Y0034638D01*
X0030028Y0034615D01*
X0030075Y0034584D01*
X0030125Y0034548D01*
X0030245Y0034444D01*
X0030296Y0034394D01*
X0030310Y0034374D01*
X0030509Y0034222D01*
X0030740Y0034126D01*
X0030988Y0034094D01*
X0031236Y0034126D01*
X0031467Y0034222D01*
X0031666Y0034374D01*
X0031818Y0034573D01*
X0031914Y0034804D01*
X0031946Y0035052D01*
X0031914Y0035300D01*
X0031818Y0035531D01*
X0031666Y0035730D01*
X0031467Y0035882D01*
X0031236Y0035978D01*
X0030988Y0036010D01*
X0030740Y0035978D01*
X0030509Y0035882D01*
X0030310Y0035730D01*
X0030297Y0035712D01*
X0030181Y0035602D01*
X0030127Y0035558D01*
X0030075Y0035520D01*
X0030028Y0035489D01*
X0029986Y0035466D01*
X0029949Y0035450D01*
X0029920Y0035440D01*
X0029900Y0035436D01*
X0026067D01*
X0025752Y0035751D01*
X0025714Y0035792D01*
X0025690Y0035823D01*
X0025688Y0035825D01*
Y0035875D01*
X0025690Y0035884D01*
X0025688Y0035894D01*
Y0037372D01*
D02*
G37*
G36*
X0049530Y0051909D02*
X0049243Y0051872D01*
X0048975Y0051761D01*
X0048745Y0051585D01*
X0048569Y0051355D01*
X0048458Y0051087D01*
X0048421Y0050800D01*
X0048458Y0050513D01*
X0048569Y0050245D01*
X0048745Y0050015D01*
X0048975Y0049839D01*
X0048984Y0049835D01*
X0048963Y0049707D01*
X0048880Y0049694D01*
X0048733Y0049665D01*
X0048608Y0049582D01*
X0048511Y0049484D01*
X0043769D01*
X0043122Y0050131D01*
X0043106Y0050157D01*
X0043088Y0050194D01*
X0043071Y0050244D01*
X0043054Y0050307D01*
X0043040Y0050381D01*
X0043029Y0050464D01*
X0043016Y0050674D01*
X0043015Y0050766D01*
X0043019Y0050800D01*
X0042982Y0051087D01*
X0042871Y0051355D01*
X0042695Y0051585D01*
X0042465Y0051761D01*
X0042197Y0051872D01*
X0041910Y0051909D01*
X0041623Y0051872D01*
X0041355Y0051761D01*
X0041125Y0051585D01*
X0040949Y0051355D01*
X0040838Y0051087D01*
X0040801Y0050800D01*
X0040838Y0050513D01*
X0040949Y0050245D01*
X0041125Y0050015D01*
X0041355Y0049839D01*
X0041623Y0049728D01*
X0041910Y0049691D01*
X0041944Y0049695D01*
X0042036Y0049694D01*
X0042246Y0049681D01*
X0042329Y0049670D01*
X0042403Y0049656D01*
X0042466Y0049639D01*
X0042516Y0049622D01*
X0042553Y0049604D01*
X0042579Y0049588D01*
X0043185Y0048982D01*
X0043136Y0048864D01*
X0041849D01*
X0040582Y0050131D01*
X0040566Y0050157D01*
X0040548Y0050194D01*
X0040531Y0050244D01*
X0040514Y0050307D01*
X0040500Y0050381D01*
X0040489Y0050464D01*
X0040476Y0050674D01*
X0040475Y0050766D01*
X0040479Y0050800D01*
X0040442Y0051087D01*
X0040331Y0051355D01*
X0040155Y0051585D01*
X0039925Y0051761D01*
X0039657Y0051872D01*
X0039370Y0051909D01*
X0039083Y0051872D01*
X0038815Y0051761D01*
X0038585Y0051585D01*
X0038409Y0051355D01*
X0038298Y0051087D01*
X0038261Y0050800D01*
X0038298Y0050513D01*
X0038409Y0050245D01*
X0038585Y0050015D01*
X0038815Y0049839D01*
X0039083Y0049728D01*
X0039370Y0049691D01*
X0039404Y0049695D01*
X0039496Y0049694D01*
X0039706Y0049681D01*
X0039789Y0049670D01*
X0039863Y0049656D01*
X0039926Y0049639D01*
X0039976Y0049622D01*
X0040013Y0049604D01*
X0040039Y0049588D01*
X0041291Y0048336D01*
X0041242Y0048218D01*
X0039955D01*
X0037942Y0050232D01*
X0037928Y0050247D01*
X0037920Y0050258D01*
X0037936Y0050375D01*
Y0051225D01*
X0037913Y0051401D01*
X0037845Y0051565D01*
X0037736Y0051706D01*
X0037595Y0051815D01*
X0037431Y0051883D01*
X0037255Y0051906D01*
X0036405D01*
X0036229Y0051883D01*
X0036065Y0051815D01*
X0035924Y0051706D01*
X0035815Y0051565D01*
X0035747Y0051401D01*
X0035724Y0051225D01*
Y0050375D01*
X0035747Y0050199D01*
X0035815Y0050035D01*
X0035924Y0049894D01*
X0036065Y0049785D01*
X0036229Y0049717D01*
X0036405Y0049694D01*
X0037255D01*
X0037371Y0049709D01*
X0037405Y0049682D01*
X0039524Y0047562D01*
X0039524Y0047562D01*
X0039649Y0047479D01*
X0039796Y0047450D01*
X0047970D01*
X0047988Y0047431D01*
X0048113Y0047348D01*
X0048260Y0047319D01*
X0048260Y0047319D01*
X0049969D01*
X0049970Y0047318D01*
X0049988Y0047315D01*
X0050008Y0047310D01*
X0050028Y0047304D01*
X0050050Y0047296D01*
X0050070Y0047286D01*
X0050125Y0047256D01*
X0050154Y0047237D01*
X0050167Y0047232D01*
X0050192Y0047212D01*
X0050350Y0047147D01*
X0050520Y0047124D01*
X0050690Y0047147D01*
X0050848Y0047212D01*
X0050984Y0047316D01*
X0051088Y0047452D01*
X0051128Y0047548D01*
X0051271Y0047585D01*
X0051416Y0047440D01*
Y0047090D01*
X0051416Y0047090D01*
X0051445Y0046943D01*
X0051528Y0046818D01*
X0052313Y0046034D01*
Y0042676D01*
X0052138Y0042502D01*
X0052055Y0042377D01*
X0052026Y0042230D01*
X0052026Y0042230D01*
Y0039830D01*
X0052026Y0039830D01*
X0052055Y0039683D01*
X0052138Y0039558D01*
X0052523Y0039174D01*
Y0031476D01*
X0052336Y0031290D01*
X0052330Y0031285D01*
X0052313Y0031276D01*
X0052294Y0031266D01*
X0052269Y0031258D01*
X0052241Y0031250D01*
X0052207Y0031243D01*
X0052169Y0031239D01*
X0052125Y0031236D01*
X0052081Y0031235D01*
X0052070Y0031236D01*
X0051874Y0031211D01*
X0051692Y0031135D01*
X0051687Y0031132D01*
X0051573Y0031188D01*
Y0034434D01*
X0051712Y0034573D01*
X0051712Y0034573D01*
X0051795Y0034697D01*
X0051824Y0034844D01*
X0051824Y0034844D01*
Y0039310D01*
X0051824Y0039310D01*
X0051795Y0039457D01*
X0051712Y0039582D01*
X0051514Y0039779D01*
Y0043458D01*
X0051515Y0043459D01*
X0051517Y0043473D01*
X0051522Y0043486D01*
X0051527Y0043500D01*
X0051535Y0043514D01*
X0051544Y0043530D01*
X0051556Y0043546D01*
X0051571Y0043564D01*
X0051590Y0043583D01*
X0051594Y0043586D01*
X0051698Y0043722D01*
X0051763Y0043880D01*
X0051786Y0044050D01*
X0051763Y0044220D01*
X0051698Y0044378D01*
X0051594Y0044514D01*
X0051458Y0044618D01*
X0051300Y0044683D01*
X0051130Y0044706D01*
X0050960Y0044683D01*
X0050802Y0044618D01*
X0050666Y0044514D01*
X0050562Y0044378D01*
X0050511Y0044255D01*
X0050384Y0044280D01*
Y0045130D01*
X0050384Y0045130D01*
X0050355Y0045277D01*
X0050272Y0045402D01*
X0050272Y0045402D01*
X0050050Y0045623D01*
X0050050Y0045624D01*
X0050042Y0045636D01*
X0050036Y0045648D01*
X0050030Y0045662D01*
X0050025Y0045677D01*
X0050021Y0045695D01*
X0050018Y0045715D01*
X0050016Y0045738D01*
X0050015Y0045765D01*
X0050016Y0045770D01*
X0049993Y0045940D01*
X0049928Y0046098D01*
X0049824Y0046234D01*
X0049688Y0046338D01*
X0049530Y0046403D01*
X0049360Y0046426D01*
X0049190Y0046403D01*
X0049032Y0046338D01*
X0048896Y0046234D01*
X0048792Y0046098D01*
X0048727Y0045940D01*
X0048704Y0045770D01*
X0048727Y0045600D01*
X0048792Y0045442D01*
X0048896Y0045306D01*
X0049032Y0045202D01*
X0049190Y0045137D01*
X0049360Y0045114D01*
X0049365Y0045115D01*
X0049392Y0045114D01*
X0049415Y0045112D01*
X0049435Y0045109D01*
X0049453Y0045105D01*
X0049468Y0045100D01*
X0049482Y0045094D01*
X0049494Y0045088D01*
X0049506Y0045080D01*
X0049507Y0045080D01*
X0049616Y0044971D01*
Y0038535D01*
X0049616Y0038535D01*
X0049645Y0038387D01*
X0049728Y0038263D01*
X0049827Y0038164D01*
Y0037836D01*
X0049587Y0037596D01*
X0049504Y0037472D01*
X0049475Y0037325D01*
X0049475Y0037324D01*
Y0035557D01*
X0049475Y0035556D01*
X0049504Y0035409D01*
X0049587Y0035285D01*
X0049616Y0035256D01*
Y0028188D01*
X0049544Y0028081D01*
X0049515Y0027934D01*
X0049515Y0027933D01*
Y0027287D01*
X0049515Y0027287D01*
X0049544Y0027139D01*
X0049627Y0027015D01*
X0049767Y0026875D01*
Y0021206D01*
X0049617Y0021056D01*
X0049534Y0020932D01*
X0049505Y0020785D01*
X0049505Y0020784D01*
Y0017405D01*
X0049505Y0017405D01*
X0049534Y0017258D01*
X0049617Y0017133D01*
X0052375Y0014376D01*
X0052391Y0014350D01*
X0052409Y0014312D01*
X0052427Y0014262D01*
X0052444Y0014199D01*
X0052459Y0014124D01*
X0052471Y0014040D01*
X0052487Y0013829D01*
X0052488Y0013746D01*
X0052485Y0013716D01*
X0052522Y0013429D01*
X0052633Y0013161D01*
X0052809Y0012931D01*
X0053039Y0012755D01*
X0053307Y0012644D01*
X0053594Y0012607D01*
X0053881Y0012644D01*
X0054149Y0012755D01*
X0054379Y0012931D01*
X0054555Y0013161D01*
X0054666Y0013429D01*
X0054703Y0013716D01*
X0054666Y0014003D01*
X0054555Y0014271D01*
X0054379Y0014501D01*
X0054149Y0014677D01*
X0053881Y0014788D01*
X0053594Y0014825D01*
X0053557Y0014821D01*
X0053454Y0014820D01*
X0053246Y0014830D01*
X0053164Y0014841D01*
X0053090Y0014854D01*
X0053029Y0014870D01*
X0052979Y0014888D01*
X0052942Y0014905D01*
X0052916Y0014921D01*
X0050273Y0017564D01*
Y0020625D01*
X0050423Y0020775D01*
X0050423Y0020775D01*
X0050506Y0020899D01*
X0050535Y0021046D01*
X0050535Y0021047D01*
Y0027034D01*
X0050535Y0027035D01*
X0050506Y0027182D01*
X0050423Y0027306D01*
X0050423Y0027306D01*
X0050283Y0027446D01*
Y0027780D01*
X0050355Y0027887D01*
X0050384Y0028035D01*
X0050384Y0028035D01*
Y0035415D01*
X0050384Y0035416D01*
X0050355Y0035563D01*
X0050272Y0035687D01*
X0050272Y0035687D01*
X0050243Y0035716D01*
Y0037165D01*
X0050483Y0037405D01*
X0050483Y0037405D01*
X0050566Y0037529D01*
X0050595Y0037676D01*
Y0038323D01*
X0050595Y0038324D01*
X0050566Y0038471D01*
X0050483Y0038595D01*
X0050483Y0038595D01*
X0050384Y0038694D01*
Y0043820D01*
X0050511Y0043845D01*
X0050562Y0043722D01*
X0050666Y0043586D01*
X0050670Y0043583D01*
X0050689Y0043564D01*
X0050704Y0043546D01*
X0050716Y0043530D01*
X0050725Y0043514D01*
X0050733Y0043500D01*
X0050738Y0043486D01*
X0050743Y0043473D01*
X0050745Y0043459D01*
X0050746Y0043458D01*
Y0039620D01*
X0050746Y0039620D01*
X0050775Y0039473D01*
X0050858Y0039348D01*
X0051056Y0039151D01*
Y0035004D01*
X0050917Y0034865D01*
X0050834Y0034741D01*
X0050805Y0034593D01*
X0050805Y0034593D01*
Y0030115D01*
X0050805Y0030115D01*
X0050834Y0029968D01*
X0050876Y0029906D01*
Y0028135D01*
X0050876Y0028135D01*
X0050905Y0027987D01*
X0050988Y0027863D01*
X0051077Y0027774D01*
Y0027446D01*
X0050967Y0027336D01*
X0050884Y0027212D01*
X0050855Y0027065D01*
X0050855Y0027064D01*
Y0019716D01*
X0050855Y0019715D01*
X0050884Y0019568D01*
X0050967Y0019444D01*
X0051067Y0019344D01*
Y0018399D01*
X0051067Y0018399D01*
X0051096Y0018252D01*
X0051179Y0018127D01*
X0052382Y0016925D01*
X0052398Y0016899D01*
X0052416Y0016862D01*
X0052433Y0016812D01*
X0052450Y0016749D01*
X0052464Y0016675D01*
X0052475Y0016592D01*
X0052488Y0016382D01*
X0052489Y0016290D01*
X0052485Y0016256D01*
X0052522Y0015969D01*
X0052633Y0015701D01*
X0052809Y0015471D01*
X0053039Y0015295D01*
X0053307Y0015184D01*
X0053594Y0015147D01*
X0053881Y0015184D01*
X0054149Y0015295D01*
X0054379Y0015471D01*
X0054555Y0015701D01*
X0054666Y0015969D01*
X0054703Y0016256D01*
X0054666Y0016543D01*
X0054555Y0016811D01*
X0054379Y0017041D01*
X0054149Y0017217D01*
X0053881Y0017328D01*
X0053594Y0017365D01*
X0053560Y0017361D01*
X0053468Y0017362D01*
X0053258Y0017375D01*
X0053175Y0017386D01*
X0053101Y0017400D01*
X0053038Y0017417D01*
X0052988Y0017434D01*
X0052951Y0017452D01*
X0052925Y0017468D01*
X0051835Y0018558D01*
Y0019503D01*
X0051835Y0019503D01*
X0051806Y0019651D01*
X0051723Y0019775D01*
X0051723Y0019775D01*
X0051623Y0019875D01*
Y0026905D01*
X0051733Y0027015D01*
X0051733Y0027015D01*
X0051816Y0027139D01*
X0051845Y0027287D01*
X0051845Y0027287D01*
Y0027933D01*
X0051845Y0027934D01*
X0051816Y0028081D01*
X0051733Y0028205D01*
X0051733Y0028205D01*
X0051644Y0028294D01*
Y0029707D01*
X0051771Y0029792D01*
X0051874Y0029749D01*
X0052070Y0029724D01*
X0052266Y0029749D01*
X0052448Y0029825D01*
X0052605Y0029945D01*
X0052725Y0030102D01*
X0052801Y0030284D01*
X0052826Y0030480D01*
X0052825Y0030491D01*
X0052826Y0030535D01*
X0052829Y0030579D01*
X0052833Y0030617D01*
X0052840Y0030651D01*
X0052848Y0030679D01*
X0052856Y0030704D01*
X0052866Y0030723D01*
X0052875Y0030740D01*
X0052880Y0030746D01*
X0053179Y0031045D01*
X0053262Y0031170D01*
X0053291Y0031317D01*
X0053291Y0031317D01*
Y0039333D01*
X0053262Y0039480D01*
X0053179Y0039605D01*
X0053179Y0039605D01*
X0052794Y0039989D01*
Y0042071D01*
X0052969Y0042245D01*
X0052969Y0042245D01*
X0053052Y0042370D01*
X0053081Y0042517D01*
Y0046193D01*
X0053081Y0046193D01*
X0053052Y0046340D01*
X0052969Y0046465D01*
X0052969Y0046465D01*
X0052184Y0047249D01*
Y0047599D01*
X0052184Y0047599D01*
X0052155Y0047746D01*
X0052072Y0047871D01*
X0052072Y0047871D01*
X0050361Y0049582D01*
X0050236Y0049665D01*
X0050089Y0049694D01*
X0050045Y0049806D01*
X0050042Y0049821D01*
X0050085Y0049839D01*
X0050315Y0050015D01*
X0050491Y0050245D01*
X0050602Y0050513D01*
X0050639Y0050800D01*
X0050602Y0051087D01*
X0050491Y0051355D01*
X0050315Y0051585D01*
X0050085Y0051761D01*
X0049817Y0051872D01*
X0049530Y0051909D01*
D02*
G37*
G36*
X0014986D02*
X0014699Y0051872D01*
X0014431Y0051761D01*
X0014201Y0051585D01*
X0014025Y0051355D01*
X0013914Y0051087D01*
X0013877Y0050800D01*
X0013914Y0050513D01*
X0014025Y0050245D01*
X0014201Y0050015D01*
X0014431Y0049839D01*
X0014699Y0049728D01*
X0014986Y0049691D01*
X0015273Y0049728D01*
X0015541Y0049839D01*
X0015771Y0050015D01*
X0015947Y0050245D01*
X0016058Y0050513D01*
X0016095Y0050800D01*
X0016058Y0051087D01*
X0015947Y0051355D01*
X0015771Y0051585D01*
X0015541Y0051761D01*
X0015273Y0051872D01*
X0014986Y0051909D01*
D02*
G37*
G36*
X0017526D02*
X0017239Y0051872D01*
X0016971Y0051761D01*
X0016741Y0051585D01*
X0016565Y0051355D01*
X0016454Y0051087D01*
X0016417Y0050800D01*
X0016454Y0050513D01*
X0016565Y0050245D01*
X0016741Y0050015D01*
X0016971Y0049839D01*
X0017239Y0049728D01*
X0017526Y0049691D01*
X0017813Y0049728D01*
X0018081Y0049839D01*
X0018311Y0050015D01*
X0018487Y0050245D01*
X0018598Y0050513D01*
X0018635Y0050800D01*
X0018598Y0051087D01*
X0018487Y0051355D01*
X0018311Y0051585D01*
X0018081Y0051761D01*
X0017813Y0051872D01*
X0017526Y0051909D01*
D02*
G37*
G36*
X0027686D02*
X0027399Y0051872D01*
X0027131Y0051761D01*
X0026901Y0051585D01*
X0026725Y0051355D01*
X0026614Y0051087D01*
X0026577Y0050800D01*
X0026614Y0050513D01*
X0026725Y0050245D01*
X0026901Y0050015D01*
X0027131Y0049839D01*
X0027399Y0049728D01*
X0027686Y0049691D01*
X0027973Y0049728D01*
X0028241Y0049839D01*
X0028471Y0050015D01*
X0028647Y0050245D01*
X0028758Y0050513D01*
X0028795Y0050800D01*
X0028758Y0051087D01*
X0028647Y0051355D01*
X0028471Y0051585D01*
X0028241Y0051761D01*
X0027973Y0051872D01*
X0027686Y0051909D01*
D02*
G37*
G36*
X0045158Y0029638D02*
Y0028902D01*
X0045894D01*
X0045887Y0028951D01*
X0045791Y0029183D01*
X0045638Y0029382D01*
X0045439Y0029535D01*
X0045207Y0029631D01*
X0045158Y0029638D01*
D02*
G37*
G36*
X0044758D02*
X0044709Y0029631D01*
X0044477Y0029535D01*
X0044278Y0029382D01*
X0044125Y0029183D01*
X0044029Y0028951D01*
X0044022Y0028902D01*
X0044758D01*
Y0029638D01*
D02*
G37*
G36*
X0012446Y0051909D02*
X0012159Y0051872D01*
X0011891Y0051761D01*
X0011661Y0051585D01*
X0011485Y0051355D01*
X0011374Y0051087D01*
X0011337Y0050800D01*
X0011374Y0050513D01*
X0011485Y0050245D01*
X0011661Y0050015D01*
X0011891Y0049839D01*
X0012159Y0049728D01*
X0012446Y0049691D01*
X0012733Y0049728D01*
X0013001Y0049839D01*
X0013231Y0050015D01*
X0013407Y0050245D01*
X0013518Y0050513D01*
X0013555Y0050800D01*
X0013518Y0051087D01*
X0013407Y0051355D01*
X0013231Y0051585D01*
X0013001Y0051761D01*
X0012733Y0051872D01*
X0012446Y0051909D01*
D02*
G37*
G36*
X0031188Y0043608D02*
Y0042872D01*
X0031924D01*
X0031917Y0042921D01*
X0031821Y0043153D01*
X0031668Y0043352D01*
X0031469Y0043505D01*
X0031237Y0043601D01*
X0031188Y0043608D01*
D02*
G37*
G36*
X0038408Y0042439D02*
X0038333Y0042429D01*
X0038076Y0042323D01*
X0037856Y0042154D01*
X0037687Y0041934D01*
X0037581Y0041677D01*
X0037571Y0041602D01*
X0038408D01*
Y0042439D01*
D02*
G37*
G36*
X0024838D02*
Y0041602D01*
X0025675D01*
X0025665Y0041677D01*
X0025559Y0041934D01*
X0025390Y0042154D01*
X0025170Y0042323D01*
X0024913Y0042429D01*
X0024838Y0042439D01*
D02*
G37*
G36*
X0024438D02*
X0024363Y0042429D01*
X0024106Y0042323D01*
X0023886Y0042154D01*
X0023717Y0041934D01*
X0023611Y0041677D01*
X0023601Y0041602D01*
X0024438D01*
Y0042439D01*
D02*
G37*
G36*
X0031924Y0042472D02*
X0031188D01*
Y0041736D01*
X0031237Y0041743D01*
X0031469Y0041839D01*
X0031668Y0041992D01*
X0031821Y0042191D01*
X0031917Y0042423D01*
X0031924Y0042472D01*
D02*
G37*
G36*
X0030788D02*
X0030052D01*
X0030059Y0042423D01*
X0030155Y0042191D01*
X0030308Y0041992D01*
X0030507Y0041839D01*
X0030739Y0041743D01*
X0030788Y0041736D01*
Y0042472D01*
D02*
G37*
G36*
X0038808Y0042439D02*
Y0041602D01*
X0039645D01*
X0039635Y0041677D01*
X0039529Y0041934D01*
X0039360Y0042154D01*
X0039140Y0042323D01*
X0038883Y0042429D01*
X0038808Y0042439D01*
D02*
G37*
G36*
X0044758Y0042472D02*
X0044022D01*
X0044029Y0042423D01*
X0044125Y0042191D01*
X0044278Y0041992D01*
X0044477Y0041839D01*
X0044709Y0041743D01*
X0044758Y0041736D01*
Y0042472D01*
D02*
G37*
G36*
X0024438Y0041202D02*
X0023601D01*
X0023611Y0041127D01*
X0023717Y0040870D01*
X0023886Y0040650D01*
X0024106Y0040481D01*
X0024363Y0040375D01*
X0024438Y0040365D01*
Y0041202D01*
D02*
G37*
G36*
X0045894Y0042472D02*
X0045158D01*
Y0041736D01*
X0045207Y0041743D01*
X0045439Y0041839D01*
X0045638Y0041992D01*
X0045791Y0042191D01*
X0045887Y0042423D01*
X0045894Y0042472D01*
D02*
G37*
G36*
X0030788Y0043608D02*
X0030739Y0043601D01*
X0030507Y0043505D01*
X0030308Y0043352D01*
X0030155Y0043153D01*
X0030059Y0042921D01*
X0030052Y0042872D01*
X0030788D01*
Y0043608D01*
D02*
G37*
G36*
X0039645Y0041202D02*
X0038808D01*
Y0040365D01*
X0038883Y0040375D01*
X0039140Y0040481D01*
X0039360Y0040650D01*
X0039529Y0040870D01*
X0039635Y0041127D01*
X0039645Y0041202D01*
D02*
G37*
G36*
X0038408D02*
X0037571D01*
X0037581Y0041127D01*
X0037687Y0040870D01*
X0037856Y0040650D01*
X0038076Y0040481D01*
X0038333Y0040375D01*
X0038408Y0040365D01*
Y0041202D01*
D02*
G37*
G36*
X0025675D02*
X0024838D01*
Y0040365D01*
X0024913Y0040375D01*
X0025170Y0040481D01*
X0025390Y0040650D01*
X0025559Y0040870D01*
X0025665Y0041127D01*
X0025675Y0041202D01*
D02*
G37*
G36*
X0031188Y0029638D02*
Y0028902D01*
X0031924D01*
X0031917Y0028951D01*
X0031821Y0029183D01*
X0031668Y0029382D01*
X0031469Y0029535D01*
X0031237Y0029631D01*
X0031188Y0029638D01*
D02*
G37*
G36*
X0054610Y0051909D02*
X0054323Y0051872D01*
X0054055Y0051761D01*
X0053825Y0051585D01*
X0053649Y0051355D01*
X0053538Y0051087D01*
X0053501Y0050800D01*
X0053538Y0050513D01*
X0053649Y0050245D01*
X0053825Y0050015D01*
X0054055Y0049839D01*
X0054323Y0049728D01*
X0054610Y0049691D01*
X0054897Y0049728D01*
X0055165Y0049839D01*
X0055395Y0050015D01*
X0055571Y0050245D01*
X0055682Y0050513D01*
X0055719Y0050800D01*
X0055682Y0051087D01*
X0055571Y0051355D01*
X0055395Y0051585D01*
X0055165Y0051761D01*
X0054897Y0051872D01*
X0054610Y0051909D01*
D02*
G37*
G36*
X0038408Y0028215D02*
X0038333Y0028205D01*
X0038076Y0028099D01*
X0037856Y0027930D01*
X0037687Y0027710D01*
X0037581Y0027453D01*
X0037571Y0027378D01*
X0038408D01*
Y0028215D01*
D02*
G37*
G36*
X0010331Y0051906D02*
X0009481D01*
X0009305Y0051883D01*
X0009141Y0051815D01*
X0009000Y0051706D01*
X0008891Y0051565D01*
X0008823Y0051401D01*
X0008800Y0051225D01*
Y0050375D01*
X0008823Y0050199D01*
X0008891Y0050035D01*
X0009000Y0049894D01*
X0009141Y0049785D01*
X0009305Y0049717D01*
X0009481Y0049694D01*
X0010331D01*
X0010507Y0049717D01*
X0010671Y0049785D01*
X0010812Y0049894D01*
X0010921Y0050035D01*
X0010989Y0050199D01*
X0011012Y0050375D01*
Y0051225D01*
X0010989Y0051401D01*
X0010921Y0051565D01*
X0010812Y0051706D01*
X0010671Y0051815D01*
X0010507Y0051883D01*
X0010331Y0051906D01*
D02*
G37*
G36*
X0030788Y0028502D02*
X0030052D01*
X0030059Y0028453D01*
X0030155Y0028221D01*
X0030308Y0028022D01*
X0030507Y0027869D01*
X0030739Y0027773D01*
X0030788Y0027766D01*
Y0028502D01*
D02*
G37*
G36*
X0038808Y0028215D02*
Y0027378D01*
X0039645D01*
X0039635Y0027453D01*
X0039529Y0027710D01*
X0039360Y0027930D01*
X0039140Y0028099D01*
X0038883Y0028205D01*
X0038808Y0028215D01*
D02*
G37*
G36*
X0052070Y0051909D02*
X0051783Y0051872D01*
X0051515Y0051761D01*
X0051285Y0051585D01*
X0051109Y0051355D01*
X0050998Y0051087D01*
X0050961Y0050800D01*
X0050998Y0050513D01*
X0051109Y0050245D01*
X0051285Y0050015D01*
X0051515Y0049839D01*
X0051783Y0049728D01*
X0052070Y0049691D01*
X0052357Y0049728D01*
X0052625Y0049839D01*
X0052855Y0050015D01*
X0053031Y0050245D01*
X0053142Y0050513D01*
X0053179Y0050800D01*
X0053142Y0051087D01*
X0053031Y0051355D01*
X0052855Y0051585D01*
X0052625Y0051761D01*
X0052357Y0051872D01*
X0052070Y0051909D01*
D02*
G37*
G36*
X0024584Y0028215D02*
Y0027378D01*
X0025421D01*
X0025411Y0027453D01*
X0025305Y0027710D01*
X0025136Y0027930D01*
X0024916Y0028099D01*
X0024659Y0028205D01*
X0024584Y0028215D01*
D02*
G37*
G36*
X0039645Y0026978D02*
X0038808D01*
Y0026141D01*
X0038883Y0026151D01*
X0039140Y0026257D01*
X0039360Y0026426D01*
X0039529Y0026646D01*
X0039635Y0026903D01*
X0039645Y0026978D01*
D02*
G37*
G36*
X0038408D02*
X0037571D01*
X0037581Y0026903D01*
X0037687Y0026646D01*
X0037856Y0026426D01*
X0038076Y0026257D01*
X0038333Y0026151D01*
X0038408Y0026141D01*
Y0026978D01*
D02*
G37*
G36*
X0025421D02*
X0024584D01*
Y0026141D01*
X0024659Y0026151D01*
X0024916Y0026257D01*
X0025136Y0026426D01*
X0025305Y0026646D01*
X0025411Y0026903D01*
X0025421Y0026978D01*
D02*
G37*
G36*
X0024184Y0028215D02*
X0024109Y0028205D01*
X0023852Y0028099D01*
X0023632Y0027930D01*
X0023463Y0027710D01*
X0023357Y0027453D01*
X0023347Y0027378D01*
X0024184D01*
Y0028215D01*
D02*
G37*
G36*
X0053794Y0027251D02*
Y0026616D01*
X0054429D01*
X0054426Y0026639D01*
X0054340Y0026847D01*
X0054203Y0027025D01*
X0054025Y0027162D01*
X0053817Y0027248D01*
X0053794Y0027251D01*
D02*
G37*
G36*
X0053394D02*
X0053371Y0027248D01*
X0053163Y0027162D01*
X0052985Y0027025D01*
X0052848Y0026847D01*
X0052762Y0026639D01*
X0052759Y0026616D01*
X0053394D01*
Y0027251D01*
D02*
G37*
G36*
X0044758Y0028502D02*
X0044022D01*
X0044029Y0028453D01*
X0044125Y0028221D01*
X0044278Y0028022D01*
X0044477Y0027869D01*
X0044709Y0027773D01*
X0044758Y0027766D01*
Y0028502D01*
D02*
G37*
G36*
X0045894D02*
X0045158D01*
Y0027766D01*
X0045207Y0027773D01*
X0045439Y0027869D01*
X0045638Y0028022D01*
X0045791Y0028221D01*
X0045887Y0028453D01*
X0045894Y0028502D01*
D02*
G37*
G36*
X0044450Y0051909D02*
X0044163Y0051872D01*
X0043895Y0051761D01*
X0043665Y0051585D01*
X0043489Y0051355D01*
X0043378Y0051087D01*
X0043341Y0050800D01*
X0043378Y0050513D01*
X0043489Y0050245D01*
X0043665Y0050015D01*
X0043895Y0049839D01*
X0044163Y0049728D01*
X0044450Y0049691D01*
X0044737Y0049728D01*
X0045005Y0049839D01*
X0045235Y0050015D01*
X0045411Y0050245D01*
X0045522Y0050513D01*
X0045559Y0050800D01*
X0045522Y0051087D01*
X0045411Y0051355D01*
X0045235Y0051585D01*
X0045005Y0051761D01*
X0044737Y0051872D01*
X0044450Y0051909D01*
D02*
G37*
G36*
X0031924Y0028502D02*
X0031188D01*
Y0027766D01*
X0031237Y0027773D01*
X0031469Y0027869D01*
X0031668Y0028022D01*
X0031821Y0028221D01*
X0031917Y0028453D01*
X0031924Y0028502D01*
D02*
G37*
G36*
X0030226Y0051909D02*
X0029939Y0051872D01*
X0029671Y0051761D01*
X0029441Y0051585D01*
X0029265Y0051355D01*
X0029154Y0051087D01*
X0029117Y0050800D01*
X0029154Y0050513D01*
X0029265Y0050245D01*
X0029441Y0050015D01*
X0029671Y0049839D01*
X0029939Y0049728D01*
X0030226Y0049691D01*
X0030513Y0049728D01*
X0030781Y0049839D01*
X0031011Y0050015D01*
X0031187Y0050245D01*
X0031298Y0050513D01*
X0031335Y0050800D01*
X0031298Y0051087D01*
X0031187Y0051355D01*
X0031011Y0051585D01*
X0030781Y0051761D01*
X0030513Y0051872D01*
X0030226Y0051909D01*
D02*
G37*
G36*
X0030788Y0029638D02*
X0030739Y0029631D01*
X0030507Y0029535D01*
X0030308Y0029382D01*
X0030155Y0029183D01*
X0030059Y0028951D01*
X0030052Y0028902D01*
X0030788D01*
Y0029638D01*
D02*
G37*
G36*
X0032766Y0051909D02*
X0032479Y0051872D01*
X0032211Y0051761D01*
X0031981Y0051585D01*
X0031805Y0051355D01*
X0031694Y0051087D01*
X0031657Y0050800D01*
X0031694Y0050513D01*
X0031805Y0050245D01*
X0031981Y0050015D01*
X0032211Y0049839D01*
X0032479Y0049728D01*
X0032766Y0049691D01*
X0033053Y0049728D01*
X0033321Y0049839D01*
X0033551Y0050015D01*
X0033727Y0050245D01*
X0033838Y0050513D01*
X0033875Y0050800D01*
X0033838Y0051087D01*
X0033727Y0051355D01*
X0033551Y0051585D01*
X0033321Y0051761D01*
X0033053Y0051872D01*
X0032766Y0051909D01*
D02*
G37*
G36*
X0032750Y0044306D02*
X0032580Y0044283D01*
X0032422Y0044218D01*
X0032286Y0044114D01*
X0032182Y0043978D01*
X0032117Y0043820D01*
X0032094Y0043650D01*
X0032117Y0043480D01*
X0032182Y0043322D01*
X0032286Y0043186D01*
X0032422Y0043082D01*
X0032580Y0043017D01*
X0032750Y0042994D01*
X0032920Y0043017D01*
X0033078Y0043082D01*
X0033191Y0043169D01*
X0033201Y0043175D01*
X0033212Y0043185D01*
X0033214Y0043186D01*
X0033214Y0043187D01*
X0033226Y0043198D01*
X0033244Y0043213D01*
X0033262Y0043225D01*
X0033278Y0043235D01*
X0033294Y0043242D01*
X0033308Y0043248D01*
X0033323Y0043252D01*
X0033337Y0043255D01*
X0033338Y0043256D01*
X0038561D01*
X0046686Y0035131D01*
Y0029910D01*
X0046686Y0029910D01*
X0046715Y0029763D01*
X0046798Y0029638D01*
X0047357Y0029080D01*
Y0028661D01*
X0047230Y0028598D01*
X0047168Y0028645D01*
X0046986Y0028721D01*
X0046790Y0028746D01*
X0046594Y0028721D01*
X0046412Y0028645D01*
X0046255Y0028525D01*
X0046135Y0028368D01*
X0046059Y0028186D01*
X0046034Y0027990D01*
X0046035Y0027979D01*
X0046034Y0027935D01*
X0046031Y0027891D01*
X0046027Y0027853D01*
X0046020Y0027819D01*
X0046012Y0027791D01*
X0046004Y0027766D01*
X0045994Y0027747D01*
X0045985Y0027730D01*
X0045980Y0027724D01*
X0044686Y0026430D01*
X0044603Y0026305D01*
X0044574Y0026158D01*
X0044574Y0026158D01*
Y0022207D01*
X0044561Y0022187D01*
X0044517Y0022147D01*
X0044458Y0022144D01*
X0044434Y0022150D01*
X0044214Y0022370D01*
X0044089Y0022453D01*
X0043942Y0022482D01*
X0043942Y0022482D01*
X0039658D01*
Y0023148D01*
X0037558D01*
Y0021048D01*
X0039658D01*
Y0021714D01*
X0043783D01*
X0043917Y0021580D01*
X0043928Y0021563D01*
X0043942Y0021535D01*
X0043956Y0021498D01*
X0043970Y0021452D01*
X0043982Y0021397D01*
X0043991Y0021336D01*
X0044002Y0021177D01*
X0044003Y0021106D01*
X0044000Y0021082D01*
X0044032Y0020834D01*
X0044128Y0020603D01*
X0044280Y0020404D01*
X0044479Y0020252D01*
X0044710Y0020156D01*
X0044958Y0020124D01*
X0045206Y0020156D01*
X0045437Y0020252D01*
X0045636Y0020404D01*
X0045788Y0020603D01*
X0045884Y0020834D01*
X0045916Y0021082D01*
X0045884Y0021330D01*
X0045788Y0021561D01*
X0045636Y0021760D01*
X0045618Y0021773D01*
X0045508Y0021889D01*
X0045464Y0021943D01*
X0045426Y0021995D01*
X0045395Y0022042D01*
X0045372Y0022084D01*
X0045356Y0022121D01*
X0045346Y0022150D01*
X0045342Y0022170D01*
Y0025999D01*
X0046524Y0027180D01*
X0046530Y0027185D01*
X0046547Y0027194D01*
X0046566Y0027204D01*
X0046591Y0027212D01*
X0046619Y0027220D01*
X0046653Y0027227D01*
X0046691Y0027231D01*
X0046735Y0027234D01*
X0046779Y0027235D01*
X0046790Y0027234D01*
X0046826Y0027238D01*
X0046904Y0027126D01*
X0046875Y0026979D01*
X0046875Y0026979D01*
Y0023567D01*
X0046875Y0023566D01*
X0046904Y0023419D01*
X0046984Y0023300D01*
Y0019336D01*
X0046966Y0019320D01*
X0046922Y0019285D01*
X0046916Y0019281D01*
X0046914Y0019281D01*
X0046732Y0019205D01*
X0046575Y0019085D01*
X0046455Y0018928D01*
X0046379Y0018746D01*
X0046354Y0018550D01*
X0046379Y0018354D01*
X0046455Y0018172D01*
X0046575Y0018015D01*
X0046732Y0017895D01*
X0046914Y0017819D01*
X0047110Y0017794D01*
X0047306Y0017819D01*
X0047488Y0017895D01*
X0047645Y0018015D01*
X0047765Y0018172D01*
X0047841Y0018354D01*
X0047866Y0018550D01*
X0047841Y0018746D01*
X0047765Y0018928D01*
X0047707Y0019003D01*
X0047723Y0019027D01*
X0047752Y0019174D01*
X0047752Y0019174D01*
Y0023457D01*
X0047752Y0023458D01*
X0047723Y0023605D01*
X0047643Y0023724D01*
Y0026820D01*
X0048013Y0027189D01*
X0048013Y0027189D01*
X0048096Y0027314D01*
X0048125Y0027461D01*
Y0029239D01*
X0048096Y0029386D01*
X0048013Y0029511D01*
X0048013Y0029511D01*
X0047454Y0030069D01*
Y0035290D01*
X0047454Y0035290D01*
X0047425Y0035437D01*
X0047342Y0035562D01*
X0038992Y0043912D01*
X0038867Y0043995D01*
X0038720Y0044024D01*
X0038720Y0044024D01*
X0033345D01*
X0033345Y0044025D01*
X0033332Y0044027D01*
X0033319Y0044031D01*
X0033307Y0044037D01*
X0033293Y0044044D01*
X0033279Y0044053D01*
X0033263Y0044065D01*
X0033247Y0044079D01*
X0033223Y0044103D01*
X0033221Y0044104D01*
X0033214Y0044114D01*
X0033078Y0044218D01*
X0032920Y0044283D01*
X0032750Y0044306D01*
D02*
G37*
G36*
X0046990Y0051909D02*
X0046703Y0051872D01*
X0046435Y0051761D01*
X0046205Y0051585D01*
X0046029Y0051355D01*
X0045918Y0051087D01*
X0045881Y0050800D01*
X0045918Y0050513D01*
X0046029Y0050245D01*
X0046205Y0050015D01*
X0046435Y0049839D01*
X0046703Y0049728D01*
X0046990Y0049691D01*
X0047277Y0049728D01*
X0047545Y0049839D01*
X0047775Y0050015D01*
X0047951Y0050245D01*
X0048062Y0050513D01*
X0048099Y0050800D01*
X0048062Y0051087D01*
X0047951Y0051355D01*
X0047775Y0051585D01*
X0047545Y0051761D01*
X0047277Y0051872D01*
X0046990Y0051909D01*
D02*
G37*
%LPD*%
G36*
X0050294Y0047450D02*
X0050257Y0047474D01*
X0050184Y0047514D01*
X0050148Y0047531D01*
X0050113Y0047545D01*
X0050077Y0047556D01*
X0050041Y0047565D01*
X0050006Y0047571D01*
X0049971Y0047575D01*
X0049936Y0047576D01*
X0049883Y0047830D01*
X0049921Y0047832D01*
X0049956Y0047837D01*
X0049991Y0047845D01*
X0050023Y0047857D01*
X0050054Y0047872D01*
X0050084Y0047891D01*
X0050112Y0047913D01*
X0050138Y0047939D01*
X0050163Y0047968D01*
X0050186Y0048000D01*
X0050294Y0047450D01*
D02*
G37*
G36*
X0053381Y0047994D02*
X0053355Y0047963D01*
X0053332Y0047931D01*
X0053312Y0047899D01*
X0053295Y0047866D01*
X0053281Y0047832D01*
X0053271Y0047798D01*
X0053263Y0047763D01*
X0053259Y0047727D01*
X0053257Y0047691D01*
X0053003D01*
X0053001Y0047727D01*
X0052997Y0047763D01*
X0052989Y0047798D01*
X0052979Y0047832D01*
X0052965Y0047866D01*
X0052948Y0047899D01*
X0052928Y0047931D01*
X0052905Y0047963D01*
X0052879Y0047994D01*
X0052850Y0048024D01*
X0053410D01*
X0053381Y0047994D01*
D02*
G37*
G36*
X0025997Y0050665D02*
X0026011Y0050439D01*
X0026024Y0050340D01*
X0026041Y0050250D01*
X0026063Y0050169D01*
X0026089Y0050097D01*
X0026119Y0050034D01*
X0026153Y0049980D01*
X0026191Y0049935D01*
X0026011Y0049755D01*
X0025966Y0049793D01*
X0025912Y0049827D01*
X0025849Y0049857D01*
X0025777Y0049883D01*
X0025696Y0049905D01*
X0025606Y0049922D01*
X0025507Y0049935D01*
X0025281Y0049949D01*
X0025154Y0049950D01*
X0025996Y0050792D01*
X0025997Y0050665D01*
D02*
G37*
G36*
X0040221D02*
X0040235Y0050439D01*
X0040248Y0050340D01*
X0040265Y0050250D01*
X0040287Y0050169D01*
X0040313Y0050097D01*
X0040343Y0050034D01*
X0040377Y0049980D01*
X0040415Y0049935D01*
X0040235Y0049755D01*
X0040190Y0049793D01*
X0040136Y0049827D01*
X0040073Y0049857D01*
X0040001Y0049883D01*
X0039920Y0049905D01*
X0039830Y0049922D01*
X0039731Y0049935D01*
X0039505Y0049949D01*
X0039379Y0049950D01*
X0040220Y0050792D01*
X0040221Y0050665D01*
D02*
G37*
G36*
X0008835Y0046345D02*
X0009068Y0046051D01*
X0009100Y0046017D01*
X0009131Y0045985D01*
X0009132Y0045616D01*
X0009092Y0045652D01*
X0009051Y0045680D01*
X0009010Y0045700D01*
X0008969Y0045712D01*
X0008927Y0045716D01*
X0008886Y0045712D01*
X0008843Y0045700D01*
X0008801Y0045680D01*
X0008758Y0045651D01*
X0008715Y0045615D01*
X0008800Y0046395D01*
X0008835Y0046345D01*
D02*
G37*
G36*
X0055351Y0047150D02*
X0055327Y0047116D01*
X0055306Y0047082D01*
X0055287Y0047048D01*
X0055272Y0047013D01*
X0055259Y0046978D01*
X0055250Y0046943D01*
X0055243Y0046908D01*
X0055238Y0046872D01*
X0055237Y0046837D01*
X0054983Y0046810D01*
X0054981Y0046847D01*
X0054976Y0046882D01*
X0054968Y0046917D01*
X0054957Y0046951D01*
X0054942Y0046983D01*
X0054924Y0047014D01*
X0054903Y0047044D01*
X0054879Y0047073D01*
X0054851Y0047101D01*
X0054820Y0047128D01*
X0055377Y0047184D01*
X0055351Y0047150D01*
D02*
G37*
G36*
X0049761Y0045724D02*
X0049764Y0045684D01*
X0049771Y0045645D01*
X0049779Y0045608D01*
X0049791Y0045573D01*
X0049805Y0045539D01*
X0049822Y0045507D01*
X0049841Y0045477D01*
X0049863Y0045449D01*
X0049888Y0045422D01*
X0049708Y0045242D01*
X0049681Y0045267D01*
X0049653Y0045289D01*
X0049623Y0045308D01*
X0049591Y0045325D01*
X0049557Y0045339D01*
X0049522Y0045351D01*
X0049485Y0045359D01*
X0049446Y0045366D01*
X0049406Y0045369D01*
X0049364Y0045370D01*
X0049760Y0045766D01*
X0049761Y0045724D01*
D02*
G37*
G36*
X0042761Y0050665D02*
X0042775Y0050439D01*
X0042788Y0050340D01*
X0042805Y0050250D01*
X0042827Y0050169D01*
X0042853Y0050097D01*
X0042883Y0050034D01*
X0042917Y0049980D01*
X0042955Y0049935D01*
X0042775Y0049755D01*
X0042730Y0049793D01*
X0042676Y0049827D01*
X0042613Y0049857D01*
X0042541Y0049883D01*
X0042460Y0049905D01*
X0042370Y0049922D01*
X0042271Y0049935D01*
X0042045Y0049949D01*
X0041918Y0049950D01*
X0042760Y0050792D01*
X0042761Y0050665D01*
D02*
G37*
G36*
X0037655Y0050298D02*
X0037647Y0050276D01*
X0037645Y0050251D01*
X0037650Y0050223D01*
X0037661Y0050193D01*
X0037678Y0050160D01*
X0037701Y0050124D01*
X0037731Y0050085D01*
X0037768Y0050044D01*
X0037810Y0049999D01*
X0037631Y0049820D01*
X0037586Y0049862D01*
X0037506Y0049929D01*
X0037470Y0049952D01*
X0037437Y0049969D01*
X0037407Y0049980D01*
X0037379Y0049985D01*
X0037354Y0049983D01*
X0037332Y0049975D01*
X0037313Y0049960D01*
X0037670Y0050317D01*
X0037655Y0050298D01*
D02*
G37*
G36*
X0009037Y0043973D02*
X0009005Y0043937D01*
X0008977Y0043896D01*
X0008953Y0043851D01*
X0008934Y0043801D01*
X0008918Y0043747D01*
X0008907Y0043689D01*
X0008900Y0043626D01*
X0008897Y0043559D01*
X0008898Y0043487D01*
X0008903Y0043411D01*
X0008261Y0043952D01*
X0008342Y0043960D01*
X0008489Y0043983D01*
X0008554Y0043998D01*
X0008615Y0044015D01*
X0008670Y0044035D01*
X0008719Y0044058D01*
X0008764Y0044083D01*
X0008803Y0044111D01*
X0008837Y0044141D01*
X0009037Y0043973D01*
D02*
G37*
G36*
X0049354Y0048200D02*
X0049324Y0048229D01*
X0049293Y0048255D01*
X0049261Y0048278D01*
X0049229Y0048298D01*
X0049196Y0048315D01*
X0049162Y0048329D01*
X0049128Y0048339D01*
X0049093Y0048347D01*
X0049057Y0048351D01*
X0049021Y0048353D01*
Y0048607D01*
X0049057Y0048609D01*
X0049093Y0048613D01*
X0049128Y0048621D01*
X0049162Y0048631D01*
X0049196Y0048645D01*
X0049229Y0048662D01*
X0049261Y0048682D01*
X0049293Y0048705D01*
X0049324Y0048731D01*
X0049354Y0048760D01*
Y0048200D01*
D02*
G37*
G36*
X0011914Y0045747D02*
X0011947Y0045696D01*
X0012002Y0045651D01*
X0012079Y0045612D01*
X0012179Y0045579D01*
X0012300Y0045552D01*
X0012443Y0045531D01*
X0012609Y0045516D01*
X0013006Y0045504D01*
Y0043904D01*
X0012796Y0043901D01*
X0012443Y0043877D01*
X0012300Y0043856D01*
X0012179Y0043829D01*
X0012079Y0043796D01*
X0012002Y0043757D01*
X0011947Y0043712D01*
X0011914Y0043661D01*
X0011903Y0043604D01*
Y0045804D01*
X0011914Y0045747D01*
D02*
G37*
G36*
X0051381Y0043734D02*
X0051355Y0043703D01*
X0051332Y0043671D01*
X0051312Y0043639D01*
X0051295Y0043606D01*
X0051281Y0043572D01*
X0051271Y0043538D01*
X0051263Y0043503D01*
X0051259Y0043467D01*
X0051257Y0043431D01*
X0051003D01*
X0051001Y0043467D01*
X0050997Y0043503D01*
X0050989Y0043538D01*
X0050979Y0043572D01*
X0050965Y0043606D01*
X0050948Y0043639D01*
X0050928Y0043671D01*
X0050905Y0043703D01*
X0050879Y0043734D01*
X0050850Y0043764D01*
X0051410D01*
X0051381Y0043734D01*
D02*
G37*
G36*
X0033072Y0043893D02*
X0033102Y0043867D01*
X0033133Y0043843D01*
X0033165Y0043823D01*
X0033198Y0043806D01*
X0033231Y0043792D01*
X0033265Y0043781D01*
X0033300Y0043773D01*
X0033336Y0043769D01*
X0033373Y0043767D01*
X0033366Y0043513D01*
X0033330Y0043512D01*
X0033294Y0043507D01*
X0033259Y0043499D01*
X0033224Y0043489D01*
X0033190Y0043475D01*
X0033157Y0043459D01*
X0033124Y0043439D01*
X0033092Y0043417D01*
X0033060Y0043391D01*
X0033029Y0043363D01*
X0033043Y0043923D01*
X0033072Y0043893D01*
D02*
G37*
G36*
X0020814Y0050376D02*
X0020785Y0050281D01*
X0020765Y0050192D01*
X0020755Y0050108D01*
X0020753Y0050029D01*
X0020760Y0049956D01*
X0020776Y0049889D01*
X0020802Y0049827D01*
X0020836Y0049771D01*
X0020880Y0049720D01*
X0020627Y0049613D01*
X0020602Y0049634D01*
X0020562Y0049659D01*
X0020510Y0049688D01*
X0020363Y0049759D01*
X0019907Y0049949D01*
X0019759Y0050008D01*
X0020852Y0050477D01*
X0020814Y0050376D01*
D02*
G37*
G36*
X0043799Y0045493D02*
X0043827Y0045471D01*
X0043857Y0045452D01*
X0043889Y0045435D01*
X0043923Y0045421D01*
X0043958Y0045409D01*
X0043995Y0045401D01*
X0044034Y0045394D01*
X0044074Y0045391D01*
X0044116Y0045390D01*
X0043720Y0044994D01*
X0043719Y0045036D01*
X0043716Y0045076D01*
X0043709Y0045115D01*
X0043701Y0045152D01*
X0043689Y0045187D01*
X0043675Y0045221D01*
X0043658Y0045253D01*
X0043639Y0045283D01*
X0043617Y0045311D01*
X0043592Y0045338D01*
X0043772Y0045518D01*
X0043799Y0045493D01*
D02*
G37*
G36*
X0045324Y0043770D02*
X0045294Y0043799D01*
X0045263Y0043825D01*
X0045231Y0043848D01*
X0045199Y0043868D01*
X0045166Y0043885D01*
X0045132Y0043899D01*
X0045098Y0043909D01*
X0045063Y0043917D01*
X0045027Y0043921D01*
X0044991Y0043923D01*
Y0044177D01*
X0045027Y0044179D01*
X0045063Y0044183D01*
X0045098Y0044191D01*
X0045132Y0044201D01*
X0045166Y0044215D01*
X0045199Y0044232D01*
X0045231Y0044252D01*
X0045263Y0044275D01*
X0045294Y0044301D01*
X0045324Y0044330D01*
Y0043770D01*
D02*
G37*
G36*
X0023457Y0050665D02*
X0023471Y0050439D01*
X0023484Y0050340D01*
X0023501Y0050250D01*
X0023523Y0050169D01*
X0023549Y0050097D01*
X0023579Y0050034D01*
X0023613Y0049980D01*
X0023651Y0049935D01*
X0023471Y0049755D01*
X0023426Y0049793D01*
X0023372Y0049827D01*
X0023309Y0049857D01*
X0023237Y0049883D01*
X0023156Y0049905D01*
X0023066Y0049922D01*
X0022967Y0049935D01*
X0022741Y0049949D01*
X0022615Y0049950D01*
X0023456Y0050792D01*
X0023457Y0050665D01*
D02*
G37*
G36*
X0011550Y0020056D02*
X0011469Y0020048D01*
X0011323Y0020026D01*
X0011257Y0020011D01*
X0011197Y0019993D01*
X0011142Y0019973D01*
X0011092Y0019950D01*
X0011048Y0019925D01*
X0011008Y0019898D01*
X0010974Y0019867D01*
X0010775Y0020035D01*
X0010807Y0020072D01*
X0010835Y0020112D01*
X0010858Y0020158D01*
X0010878Y0020207D01*
X0010894Y0020261D01*
X0010905Y0020320D01*
X0010912Y0020383D01*
X0010915Y0020450D01*
X0010914Y0020522D01*
X0010908Y0020598D01*
X0011550Y0020056D01*
D02*
G37*
G36*
X0047458Y0019084D02*
X0047441Y0019066D01*
X0047427Y0019048D01*
X0047417Y0019031D01*
X0047410Y0019014D01*
X0047406Y0018998D01*
X0047406Y0018983D01*
X0047409Y0018968D01*
X0047415Y0018954D01*
X0047425Y0018940D01*
X0047438Y0018927D01*
X0046994Y0019036D01*
X0047011Y0019042D01*
X0047029Y0019051D01*
X0047051Y0019064D01*
X0047075Y0019081D01*
X0047131Y0019125D01*
X0047197Y0019185D01*
X0047274Y0019260D01*
X0047458Y0019084D01*
D02*
G37*
G36*
X0030488Y0020592D02*
X0030418Y0020661D01*
X0030284Y0020777D01*
X0030220Y0020824D01*
X0030158Y0020864D01*
X0030098Y0020897D01*
X0030041Y0020922D01*
X0029985Y0020940D01*
X0029931Y0020951D01*
X0029880Y0020955D01*
Y0021209D01*
X0029931Y0021213D01*
X0029985Y0021224D01*
X0030041Y0021242D01*
X0030098Y0021267D01*
X0030158Y0021300D01*
X0030220Y0021340D01*
X0030284Y0021387D01*
X0030350Y0021441D01*
X0030488Y0021572D01*
Y0020592D01*
D02*
G37*
G36*
X0008834Y0020945D02*
X0009068Y0020651D01*
X0009100Y0020617D01*
X0009131Y0020585D01*
X0009132Y0020217D01*
X0009091Y0020253D01*
X0009051Y0020281D01*
X0009010Y0020301D01*
X0008969Y0020313D01*
X0008927Y0020316D01*
X0008885Y0020312D01*
X0008843Y0020300D01*
X0008800Y0020280D01*
X0008758Y0020252D01*
X0008714Y0020215D01*
X0008799Y0020995D01*
X0008834Y0020945D01*
D02*
G37*
G36*
X0057179Y0019661D02*
X0057141Y0019616D01*
X0057107Y0019562D01*
X0057077Y0019499D01*
X0057051Y0019427D01*
X0057029Y0019346D01*
X0057012Y0019256D01*
X0056999Y0019157D01*
X0056985Y0018931D01*
X0056984Y0018805D01*
X0056143Y0019646D01*
X0056269Y0019647D01*
X0056495Y0019661D01*
X0056594Y0019674D01*
X0056684Y0019691D01*
X0056765Y0019713D01*
X0056837Y0019739D01*
X0056900Y0019769D01*
X0056954Y0019803D01*
X0056999Y0019841D01*
X0057179Y0019661D01*
D02*
G37*
G36*
X0053984Y0029674D02*
X0053956Y0029643D01*
X0053931Y0029609D01*
X0053909Y0029571D01*
X0053890Y0029530D01*
X0053874Y0029486D01*
X0053861Y0029438D01*
X0053852Y0029387D01*
X0053845Y0029333D01*
X0053841Y0029276D01*
X0053840Y0029215D01*
X0053345Y0029710D01*
X0053406Y0029711D01*
X0053463Y0029715D01*
X0053517Y0029722D01*
X0053568Y0029732D01*
X0053616Y0029744D01*
X0053660Y0029760D01*
X0053701Y0029779D01*
X0053739Y0029801D01*
X0053773Y0029826D01*
X0053804Y0029854D01*
X0053984Y0029674D01*
D02*
G37*
G36*
X0028756Y0030079D02*
X0028718Y0030036D01*
X0028684Y0029993D01*
X0028655Y0029950D01*
X0028631Y0029907D01*
X0028611Y0029864D01*
X0028595Y0029822D01*
X0028584Y0029780D01*
X0028577Y0029738D01*
X0028575Y0029696D01*
X0028321D01*
X0028319Y0029738D01*
X0028312Y0029780D01*
X0028301Y0029822D01*
X0028285Y0029864D01*
X0028265Y0029907D01*
X0028241Y0029950D01*
X0028212Y0029993D01*
X0028178Y0030036D01*
X0028140Y0030079D01*
X0028098Y0030123D01*
X0028798D01*
X0028756Y0030079D01*
D02*
G37*
G36*
X0011012Y0017613D02*
X0010977Y0017663D01*
X0010744Y0017957D01*
X0010712Y0017991D01*
X0010681Y0018024D01*
X0010680Y0018392D01*
X0010720Y0018356D01*
X0010761Y0018328D01*
X0010802Y0018308D01*
X0010843Y0018296D01*
X0010884Y0018292D01*
X0010926Y0018296D01*
X0010968Y0018308D01*
X0011011Y0018329D01*
X0011054Y0018357D01*
X0011097Y0018393D01*
X0011012Y0017613D01*
D02*
G37*
G36*
X0009037Y0018574D02*
X0009005Y0018537D01*
X0008977Y0018496D01*
X0008953Y0018451D01*
X0008933Y0018402D01*
X0008918Y0018348D01*
X0008906Y0018289D01*
X0008899Y0018226D01*
X0008896Y0018159D01*
X0008898Y0018087D01*
X0008903Y0018011D01*
X0008261Y0018553D01*
X0008342Y0018560D01*
X0008488Y0018583D01*
X0008554Y0018598D01*
X0008614Y0018616D01*
X0008669Y0018636D01*
X0008719Y0018658D01*
X0008763Y0018684D01*
X0008803Y0018711D01*
X0008837Y0018741D01*
X0009037Y0018574D01*
D02*
G37*
G36*
X0046785Y0027490D02*
X0046724Y0027489D01*
X0046667Y0027485D01*
X0046613Y0027478D01*
X0046562Y0027469D01*
X0046514Y0027456D01*
X0046470Y0027440D01*
X0046429Y0027421D01*
X0046391Y0027399D01*
X0046357Y0027374D01*
X0046326Y0027346D01*
X0046146Y0027526D01*
X0046174Y0027557D01*
X0046199Y0027591D01*
X0046221Y0027629D01*
X0046240Y0027670D01*
X0046256Y0027714D01*
X0046269Y0027762D01*
X0046278Y0027813D01*
X0046285Y0027867D01*
X0046289Y0027924D01*
X0046290Y0027985D01*
X0046785Y0027490D01*
D02*
G37*
G36*
X0011012Y0022694D02*
X0010977Y0022743D01*
X0010743Y0023038D01*
X0010712Y0023072D01*
X0010680Y0023104D01*
X0010680Y0023472D01*
X0010720Y0023436D01*
X0010760Y0023408D01*
X0010801Y0023388D01*
X0010843Y0023376D01*
X0010884Y0023372D01*
X0010926Y0023376D01*
X0010968Y0023389D01*
X0011011Y0023409D01*
X0011054Y0023437D01*
X0011097Y0023474D01*
X0011012Y0022694D01*
D02*
G37*
G36*
X0008834Y0026026D02*
X0009068Y0025731D01*
X0009099Y0025697D01*
X0009131Y0025665D01*
X0009131Y0025297D01*
X0009091Y0025333D01*
X0009051Y0025361D01*
X0009010Y0025381D01*
X0008968Y0025393D01*
X0008927Y0025397D01*
X0008885Y0025393D01*
X0008843Y0025380D01*
X0008800Y0025360D01*
X0008757Y0025332D01*
X0008714Y0025295D01*
X0008799Y0026075D01*
X0008834Y0026026D01*
D02*
G37*
G36*
X0011551Y0025136D02*
X0011469Y0025129D01*
X0011323Y0025106D01*
X0011257Y0025091D01*
X0011197Y0025073D01*
X0011142Y0025053D01*
X0011092Y0025030D01*
X0011048Y0025005D01*
X0011009Y0024978D01*
X0010974Y0024947D01*
X0010775Y0025115D01*
X0010807Y0025152D01*
X0010835Y0025192D01*
X0010858Y0025238D01*
X0010878Y0025287D01*
X0010894Y0025341D01*
X0010905Y0025400D01*
X0010912Y0025463D01*
X0010915Y0025530D01*
X0010914Y0025601D01*
X0010908Y0025678D01*
X0011551Y0025136D01*
D02*
G37*
G36*
X0009037Y0023654D02*
X0009005Y0023617D01*
X0008977Y0023576D01*
X0008953Y0023531D01*
X0008933Y0023482D01*
X0008918Y0023427D01*
X0008906Y0023369D01*
X0008899Y0023306D01*
X0008896Y0023239D01*
X0008897Y0023167D01*
X0008903Y0023091D01*
X0008261Y0023633D01*
X0008342Y0023640D01*
X0008488Y0023663D01*
X0008554Y0023678D01*
X0008614Y0023696D01*
X0008669Y0023716D01*
X0008719Y0023738D01*
X0008763Y0023764D01*
X0008803Y0023791D01*
X0008837Y0023821D01*
X0009037Y0023654D01*
D02*
G37*
G36*
X0045089Y0022139D02*
X0045100Y0022085D01*
X0045118Y0022029D01*
X0045143Y0021972D01*
X0045176Y0021912D01*
X0045216Y0021850D01*
X0045263Y0021786D01*
X0045317Y0021720D01*
X0045448Y0021582D01*
X0044751D01*
X0044258Y0021089D01*
X0044257Y0021187D01*
X0044245Y0021364D01*
X0044233Y0021443D01*
X0044217Y0021515D01*
X0044198Y0021580D01*
X0044175Y0021639D01*
X0044149Y0021691D01*
X0044118Y0021737D01*
X0044084Y0021776D01*
X0044264Y0021956D01*
X0044303Y0021922D01*
X0044349Y0021891D01*
X0044401Y0021865D01*
X0044460Y0021842D01*
X0044525Y0021823D01*
X0044597Y0021807D01*
X0044662Y0021798D01*
X0044700Y0021850D01*
X0044740Y0021912D01*
X0044773Y0021972D01*
X0044798Y0022029D01*
X0044816Y0022085D01*
X0044827Y0022139D01*
X0044831Y0022190D01*
X0045085D01*
X0045089Y0022139D01*
D02*
G37*
G36*
X0025167Y0021640D02*
X0025159Y0021617D01*
Y0021590D01*
X0025167Y0021560D01*
X0025181Y0021526D01*
X0025202Y0021488D01*
X0025231Y0021447D01*
X0025267Y0021402D01*
X0025361Y0021301D01*
X0025181Y0021121D01*
X0025129Y0021172D01*
X0025035Y0021251D01*
X0024994Y0021279D01*
X0024956Y0021301D01*
X0024922Y0021315D01*
X0024892Y0021323D01*
X0024865D01*
X0024841Y0021315D01*
X0024822Y0021301D01*
X0025181Y0021660D01*
X0025167Y0021640D01*
D02*
G37*
G36*
X0025361Y0022895D02*
X0025310Y0022843D01*
X0025230Y0022749D01*
X0025201Y0022707D01*
X0025179Y0022670D01*
X0025165Y0022636D01*
X0025157Y0022605D01*
X0025157Y0022578D01*
X0025164Y0022555D01*
X0025178Y0022536D01*
X0024822Y0022892D01*
X0024841Y0022878D01*
X0024864Y0022871D01*
X0024891Y0022871D01*
X0024922Y0022879D01*
X0024956Y0022893D01*
X0024993Y0022915D01*
X0025035Y0022944D01*
X0025080Y0022981D01*
X0025181Y0023075D01*
X0025361Y0022895D01*
D02*
G37*
G36*
X0039404Y0022328D02*
X0039412Y0022306D01*
X0039425Y0022287D01*
X0039443Y0022271D01*
X0039466Y0022257D01*
X0039494Y0022245D01*
X0039528Y0022236D01*
X0039566Y0022230D01*
X0039610Y0022226D01*
X0039659Y0022225D01*
Y0021971D01*
X0039610Y0021970D01*
X0039566Y0021966D01*
X0039528Y0021960D01*
X0039494Y0021951D01*
X0039466Y0021939D01*
X0039443Y0021925D01*
X0039425Y0021909D01*
X0039412Y0021890D01*
X0039404Y0021868D01*
X0039402Y0021844D01*
Y0022352D01*
X0039404Y0022328D01*
D02*
G37*
G36*
X0008835Y0036185D02*
X0009068Y0035891D01*
X0009100Y0035857D01*
X0009131Y0035825D01*
X0009132Y0035456D01*
X0009091Y0035493D01*
X0009051Y0035521D01*
X0009010Y0035540D01*
X0008969Y0035552D01*
X0008927Y0035556D01*
X0008885Y0035552D01*
X0008843Y0035540D01*
X0008801Y0035520D01*
X0008758Y0035491D01*
X0008715Y0035455D01*
X0008800Y0036235D01*
X0008835Y0036185D01*
D02*
G37*
G36*
X0037814Y0036466D02*
X0037812Y0036490D01*
X0037804Y0036512D01*
X0037791Y0036531D01*
X0037773Y0036547D01*
X0037750Y0036561D01*
X0037722Y0036573D01*
X0037688Y0036582D01*
X0037650Y0036588D01*
X0037606Y0036592D01*
X0037557Y0036593D01*
Y0036847D01*
X0037606Y0036848D01*
X0037650Y0036852D01*
X0037688Y0036858D01*
X0037722Y0036867D01*
X0037750Y0036879D01*
X0037773Y0036893D01*
X0037791Y0036909D01*
X0037804Y0036928D01*
X0037812Y0036950D01*
X0037814Y0036974D01*
Y0036466D01*
D02*
G37*
G36*
X0025421Y0035864D02*
X0025413Y0035841D01*
Y0035814D01*
X0025421Y0035784D01*
X0025435Y0035750D01*
X0025456Y0035712D01*
X0025485Y0035671D01*
X0025521Y0035626D01*
X0025615Y0035525D01*
X0025435Y0035345D01*
X0025383Y0035396D01*
X0025289Y0035475D01*
X0025248Y0035504D01*
X0025210Y0035525D01*
X0025176Y0035539D01*
X0025146Y0035547D01*
X0025119D01*
X0025096Y0035539D01*
X0025076Y0035525D01*
X0025435Y0035884D01*
X0025421Y0035864D01*
D02*
G37*
G36*
X0039391D02*
X0039383Y0035841D01*
Y0035814D01*
X0039391Y0035784D01*
X0039405Y0035750D01*
X0039426Y0035712D01*
X0039455Y0035671D01*
X0039491Y0035626D01*
X0039585Y0035525D01*
X0039405Y0035345D01*
X0039353Y0035396D01*
X0039259Y0035475D01*
X0039218Y0035504D01*
X0039180Y0035525D01*
X0039146Y0035539D01*
X0039116Y0035547D01*
X0039089D01*
X0039065Y0035539D01*
X0039046Y0035525D01*
X0039405Y0035884D01*
X0039391Y0035864D01*
D02*
G37*
G36*
X0011854Y0041071D02*
X0011904Y0040935D01*
X0011987Y0040815D01*
X0012104Y0040712D01*
X0012254Y0040624D01*
X0012438Y0040552D01*
X0012655Y0040496D01*
X0012905Y0040456D01*
X0013189Y0040432D01*
X0013506Y0040424D01*
Y0038824D01*
X0013189Y0038816D01*
X0012905Y0038792D01*
X0012655Y0038752D01*
X0012438Y0038696D01*
X0012254Y0038625D01*
X0012104Y0038537D01*
X0011987Y0038433D01*
X0011904Y0038313D01*
X0011854Y0038178D01*
X0011837Y0038026D01*
Y0041222D01*
X0011854Y0041071D01*
D02*
G37*
G36*
X0026763Y0040052D02*
X0026769Y0040011D01*
X0026777Y0039972D01*
X0026788Y0039935D01*
X0026801Y0039900D01*
X0026816Y0039866D01*
X0026834Y0039834D01*
X0026854Y0039804D01*
X0026876Y0039776D01*
X0026900Y0039749D01*
X0026734Y0039556D01*
X0026707Y0039581D01*
X0026678Y0039603D01*
X0026648Y0039622D01*
X0026616Y0039638D01*
X0026583Y0039651D01*
X0026548Y0039661D01*
X0026511Y0039668D01*
X0026473Y0039672D01*
X0026433Y0039673D01*
X0026392Y0039671D01*
X0026759Y0040094D01*
X0026763Y0040052D01*
D02*
G37*
G36*
X0008835Y0041265D02*
X0009068Y0040971D01*
X0009100Y0040937D01*
X0009131Y0040905D01*
X0009132Y0040537D01*
X0009091Y0040573D01*
X0009051Y0040601D01*
X0009010Y0040621D01*
X0008969Y0040632D01*
X0008927Y0040636D01*
X0008885Y0040632D01*
X0008843Y0040620D01*
X0008800Y0040600D01*
X0008758Y0040572D01*
X0008714Y0040535D01*
X0008800Y0041315D01*
X0008835Y0041265D01*
D02*
G37*
G36*
X0008876Y0039029D02*
X0008883Y0039035D01*
X0008958Y0038960D01*
X0009037Y0038894D01*
X0009031Y0038887D01*
X0009066Y0038851D01*
X0009035Y0038816D01*
X0009007Y0038776D01*
X0008983Y0038731D01*
X0008962Y0038681D01*
X0008944Y0038626D01*
X0008930Y0038567D01*
X0008919Y0038503D01*
X0008911Y0038433D01*
X0008907Y0038359D01*
X0008906Y0038281D01*
X0008596Y0038590D01*
X0008261Y0038873D01*
X0008342Y0038880D01*
X0008489Y0038903D01*
X0008554Y0038918D01*
X0008615Y0038936D01*
X0008670Y0038956D01*
X0008719Y0038978D01*
X0008764Y0039004D01*
X0008803Y0039031D01*
X0008837Y0039061D01*
X0008876Y0039029D01*
D02*
G37*
G36*
X0051389Y0011010D02*
X0051396Y0010988D01*
X0051409Y0010969D01*
X0051427Y0010953D01*
X0051450Y0010939D01*
X0051479Y0010927D01*
X0051512Y0010918D01*
X0051551Y0010912D01*
X0051594Y0010908D01*
X0051643Y0010907D01*
Y0010653D01*
X0051594Y0010652D01*
X0051551Y0010648D01*
X0051512Y0010642D01*
X0051479Y0010633D01*
X0051450Y0010621D01*
X0051427Y0010607D01*
X0051409Y0010591D01*
X0051396Y0010572D01*
X0051389Y0010550D01*
X0051386Y0010526D01*
Y0011034D01*
X0051389Y0011010D01*
D02*
G37*
G36*
X0052765Y0014715D02*
X0052819Y0014681D01*
X0052882Y0014652D01*
X0052954Y0014626D01*
X0053035Y0014605D01*
X0053125Y0014589D01*
X0053224Y0014576D01*
X0053448Y0014565D01*
X0053574Y0014566D01*
X0052744Y0013713D01*
X0052742Y0013841D01*
X0052725Y0014067D01*
X0052711Y0014167D01*
X0052693Y0014258D01*
X0052670Y0014339D01*
X0052644Y0014411D01*
X0052614Y0014474D01*
X0052580Y0014527D01*
X0052543Y0014572D01*
X0052720Y0014754D01*
X0052765Y0014715D01*
D02*
G37*
G36*
X0056125Y0012866D02*
X0055999Y0012865D01*
X0055773Y0012851D01*
X0055674Y0012838D01*
X0055584Y0012821D01*
X0055503Y0012799D01*
X0055431Y0012773D01*
X0055368Y0012743D01*
X0055314Y0012709D01*
X0055269Y0012671D01*
X0055089Y0012851D01*
X0055127Y0012896D01*
X0055161Y0012950D01*
X0055191Y0013013D01*
X0055217Y0013085D01*
X0055239Y0013166D01*
X0055256Y0013256D01*
X0055269Y0013355D01*
X0055283Y0013581D01*
X0055284Y0013708D01*
X0056125Y0012866D01*
D02*
G37*
G36*
X0048870Y0016940D02*
X0048841Y0016909D01*
X0048815Y0016877D01*
X0048793Y0016845D01*
X0048776Y0016813D01*
X0048762Y0016780D01*
X0048752Y0016747D01*
X0048745Y0016714D01*
X0048743Y0016680D01*
X0048744Y0016646D01*
X0048750Y0016611D01*
X0048361Y0017000D01*
X0048396Y0016994D01*
X0048430Y0016993D01*
X0048464Y0016995D01*
X0048497Y0017002D01*
X0048530Y0017012D01*
X0048563Y0017026D01*
X0048595Y0017043D01*
X0048627Y0017065D01*
X0048659Y0017091D01*
X0048690Y0017120D01*
X0048870Y0016940D01*
D02*
G37*
G36*
X0052774Y0017263D02*
X0052828Y0017229D01*
X0052891Y0017199D01*
X0052963Y0017173D01*
X0053044Y0017151D01*
X0053134Y0017134D01*
X0053233Y0017121D01*
X0053459Y0017107D01*
X0053585Y0017106D01*
X0052744Y0016264D01*
X0052743Y0016391D01*
X0052729Y0016617D01*
X0052716Y0016716D01*
X0052699Y0016806D01*
X0052677Y0016887D01*
X0052651Y0016959D01*
X0052621Y0017022D01*
X0052587Y0017076D01*
X0052549Y0017121D01*
X0052729Y0017301D01*
X0052774Y0017263D01*
D02*
G37*
G36*
X0052714Y0030944D02*
X0052686Y0030913D01*
X0052661Y0030879D01*
X0052639Y0030841D01*
X0052620Y0030800D01*
X0052604Y0030756D01*
X0052591Y0030708D01*
X0052582Y0030657D01*
X0052575Y0030603D01*
X0052571Y0030546D01*
X0052570Y0030485D01*
X0052075Y0030980D01*
X0052136Y0030981D01*
X0052193Y0030985D01*
X0052247Y0030992D01*
X0052298Y0031001D01*
X0052346Y0031014D01*
X0052390Y0031030D01*
X0052431Y0031049D01*
X0052469Y0031071D01*
X0052503Y0031096D01*
X0052534Y0031124D01*
X0052714Y0030944D01*
D02*
G37*
G36*
X0030488Y0034562D02*
X0030418Y0034631D01*
X0030284Y0034747D01*
X0030220Y0034794D01*
X0030158Y0034834D01*
X0030098Y0034867D01*
X0030041Y0034892D01*
X0029985Y0034910D01*
X0029931Y0034921D01*
X0029880Y0034925D01*
Y0035179D01*
X0029931Y0035183D01*
X0029985Y0035194D01*
X0030041Y0035212D01*
X0030098Y0035237D01*
X0030158Y0035270D01*
X0030220Y0035310D01*
X0030284Y0035357D01*
X0030350Y0035411D01*
X0030488Y0035542D01*
Y0034562D01*
D02*
G37*
G36*
X0044458D02*
X0044388Y0034631D01*
X0044254Y0034747D01*
X0044190Y0034794D01*
X0044128Y0034834D01*
X0044068Y0034867D01*
X0044011Y0034892D01*
X0043955Y0034910D01*
X0043901Y0034921D01*
X0043850Y0034925D01*
Y0035179D01*
X0043901Y0035183D01*
X0043955Y0035194D01*
X0044011Y0035212D01*
X0044068Y0035237D01*
X0044128Y0035270D01*
X0044190Y0035310D01*
X0044254Y0035357D01*
X0044320Y0035411D01*
X0044458Y0035542D01*
Y0034562D01*
D02*
G37*
G36*
X0011854Y0035991D02*
X0011904Y0035855D01*
X0011988Y0035735D01*
X0012104Y0035631D01*
X0012255Y0035544D01*
X0012438Y0035472D01*
X0012655Y0035416D01*
X0012905Y0035376D01*
X0013189Y0035352D01*
X0013506Y0035344D01*
Y0033744D01*
X0013189Y0033736D01*
X0012905Y0033712D01*
X0012655Y0033672D01*
X0012438Y0033616D01*
X0012255Y0033544D01*
X0012104Y0033457D01*
X0011988Y0033353D01*
X0011904Y0033233D01*
X0011854Y0033097D01*
X0011837Y0032946D01*
Y0036142D01*
X0011854Y0035991D01*
D02*
G37*
G36*
X0009037Y0033813D02*
X0009005Y0033777D01*
X0008977Y0033736D01*
X0008953Y0033691D01*
X0008934Y0033641D01*
X0008918Y0033587D01*
X0008907Y0033529D01*
X0008900Y0033466D01*
X0008897Y0033399D01*
X0008898Y0033327D01*
X0008903Y0033251D01*
X0008261Y0033793D01*
X0008342Y0033800D01*
X0008489Y0033823D01*
X0008554Y0033838D01*
X0008615Y0033855D01*
X0008670Y0033875D01*
X0008719Y0033898D01*
X0008764Y0033923D01*
X0008803Y0033951D01*
X0008837Y0033981D01*
X0009037Y0033813D01*
D02*
G37*
D10*
X0050490Y0010780D02*
X0053198D01*
X0056134Y0013716D01*
X0048390Y0039576D02*
X0048649Y0039834D01*
X0048390Y0037590D02*
Y0039576D01*
Y0037590D02*
X0048821Y0037159D01*
X0048649Y0039834D02*
X0048847Y0040033D01*
X0050000Y0038535D02*
Y0045130D01*
X0049360Y0045770D02*
X0050000Y0045130D01*
X0046700Y0046670D02*
X0048847Y0044523D01*
X0037790Y0046670D02*
X0046700D01*
X0048847Y0040033D02*
Y0044523D01*
X0025908Y0035052D02*
X0030988D01*
X0024638Y0036322D02*
X0025908Y0035052D01*
X0029750Y0036720D02*
X0038210D01*
X0026440Y0040030D02*
X0029750Y0036720D01*
X0043440Y0045670D02*
X0044120Y0044990D01*
X0036750Y0045670D02*
X0043440D01*
X0025260Y0045160D02*
X0032940D01*
X0033480Y0044620D01*
X0039670D01*
X0040240Y0044050D01*
X0038720Y0043640D02*
X0047070Y0035290D01*
X0032766Y0043640D02*
X0038720D01*
X0035880Y0048580D02*
X0037790Y0046670D01*
X0035610Y0046810D02*
X0036750Y0045670D01*
X0026596Y0046810D02*
X0035610D01*
X0039796Y0047834D02*
X0048129D01*
X0048260Y0047703D01*
X0036830Y0050800D02*
X0039796Y0047834D01*
X0027366Y0048580D02*
X0035880D01*
X0040240Y0044050D02*
X0045610D01*
X0047070Y0029910D02*
Y0035290D01*
X0022606Y0050800D02*
X0026596Y0046810D01*
X0025146Y0050800D02*
X0027366Y0048580D01*
X0038210Y0036720D02*
X0038608Y0036322D01*
X0051130Y0039620D02*
X0051440Y0039310D01*
X0051130Y0039620D02*
Y0044050D01*
X0020066Y0050354D02*
X0025260Y0045160D01*
X0020066Y0050354D02*
Y0050800D01*
X0048260Y0047703D02*
X0050443D01*
X0050520Y0047780D01*
X0041690Y0048480D02*
X0049640D01*
X0043610Y0049100D02*
X0048670D01*
X0041910Y0050800D02*
X0043610Y0049100D01*
X0039370Y0050800D02*
X0041690Y0048480D01*
X0048670Y0049100D02*
X0048880Y0049310D01*
X0051451Y0018399D02*
X0053594Y0016256D01*
X0047741Y0027461D02*
Y0029239D01*
X0047070Y0029910D02*
X0047741Y0029239D01*
X0047259Y0026979D02*
X0047741Y0027461D01*
X0047259Y0023566D02*
Y0026979D01*
X0053699Y0042341D02*
X0054117Y0041923D01*
X0053340Y0029210D02*
X0054147Y0030017D01*
X0054117Y0040598D02*
Y0041923D01*
X0054147Y0030017D02*
Y0031002D01*
X0054010Y0040491D02*
X0054117Y0040598D01*
X0054010Y0031139D02*
Y0040491D01*
Y0031139D02*
X0054147Y0031002D01*
X0052410Y0039830D02*
X0052907Y0039333D01*
X0052070Y0030480D02*
X0052907Y0031317D01*
Y0039333D01*
X0051440Y0034844D02*
Y0039310D01*
X0051189Y0034593D02*
X0051440Y0034844D01*
X0055120Y0037740D02*
X0055265Y0037885D01*
X0055120Y0033780D02*
Y0037740D01*
Y0033780D02*
X0056134Y0032766D01*
X0044958Y0026158D02*
X0046790Y0027990D01*
X0044958Y0021082D02*
Y0026158D01*
X0049889Y0017405D02*
X0053578Y0013716D01*
X0048821Y0021926D02*
Y0037159D01*
X0048589Y0021694D02*
X0048821Y0021926D01*
X0051239Y0027065D02*
X0051461Y0027287D01*
X0051239Y0019715D02*
Y0027065D01*
X0049859Y0037325D02*
X0050211Y0037676D01*
X0049859Y0035556D02*
Y0037325D01*
X0049899Y0027287D02*
X0050151Y0027035D01*
Y0021046D02*
Y0027035D01*
X0049889Y0020785D02*
X0050151Y0021046D01*
X0049889Y0017405D02*
Y0020785D01*
X0051239Y0019715D02*
X0051451Y0019503D01*
Y0018399D02*
Y0019503D01*
X0050000Y0028035D02*
Y0035416D01*
X0049899Y0027934D02*
X0050000Y0028035D01*
X0049899Y0027287D02*
Y0027934D01*
X0051260Y0028135D02*
Y0030044D01*
Y0028135D02*
X0051461Y0027934D01*
Y0027287D02*
Y0027934D01*
X0049859Y0035556D02*
X0050000Y0035416D01*
X0048589Y0021046D02*
Y0021694D01*
Y0021046D02*
X0048780Y0020855D01*
Y0017030D02*
Y0020855D01*
X0050000Y0038535D02*
X0050211Y0038324D01*
Y0037676D02*
Y0038324D01*
X0047259Y0023566D02*
X0047368Y0023458D01*
Y0019174D02*
Y0023458D01*
X0052410Y0039830D02*
Y0042230D01*
X0051189Y0030115D02*
Y0034593D01*
X0047110Y0018916D02*
X0047368Y0019174D01*
X0048260Y0016510D02*
X0048780Y0017030D01*
X0053578Y0013716D02*
X0053594D01*
X0051189Y0030115D02*
X0051260Y0030044D01*
X0055265Y0037885D02*
Y0044675D01*
X0047110Y0018550D02*
Y0018916D01*
X0038608Y0022098D02*
X0041458D01*
X0029270Y0010100D02*
X0036830Y0002540D01*
X0020166Y0010100D02*
X0029270D01*
X0018836Y0011430D02*
X0020166Y0010100D01*
X0018836Y0011430D02*
Y0017994D01*
X0012446Y0024384D02*
X0018836Y0017994D01*
X0009906Y0024384D02*
X0012446D01*
X0012652Y0010414D02*
X0017820D01*
X0018836Y0011430D01*
X0026670Y0002540D02*
Y0007620D01*
X0025400Y0021082D02*
X0030988D01*
X0024384Y0022098D02*
X0025400Y0021082D01*
X0024384Y0022098D02*
X0028448Y0026162D01*
Y0030480D01*
X0043942Y0022098D02*
X0044958Y0021082D01*
X0038608Y0022098D02*
X0043942D01*
X0056134Y0018796D02*
X0058166Y0020828D01*
Y0031750D01*
X0057150Y0032766D02*
X0058166Y0031750D01*
X0056134Y0032766D02*
X0057150D01*
X0038608Y0036322D02*
X0039878Y0035052D01*
X0044958D01*
X0055110Y0044830D02*
X0055265Y0044675D01*
X0048880Y0049310D02*
X0050089D01*
X0055070Y0047440D02*
X0055110Y0047400D01*
Y0044830D02*
Y0047400D01*
X0050089Y0049310D02*
X0051800Y0047599D01*
Y0047090D02*
Y0047599D01*
X0053130Y0047470D02*
Y0048310D01*
Y0047470D02*
X0053699Y0046901D01*
Y0042341D02*
Y0046901D01*
X0052697Y0042517D02*
Y0046193D01*
X0052410Y0042230D02*
X0052697Y0042517D01*
X0051800Y0047090D02*
X0052697Y0046193D01*
D11*
X0031098Y0038862D02*
X0038608D01*
X0026230Y0043730D02*
X0031098Y0038862D01*
X0013980Y0043730D02*
X0026230D01*
X0013006Y0044704D02*
X0013980Y0043730D01*
X0009906Y0044704D02*
X0013006D01*
X0017526Y0039624D02*
X0018288Y0038862D01*
X0009906Y0039624D02*
X0017526D01*
X0018288Y0038862D02*
X0024638D01*
X0009860Y0039560D02*
Y0039578D01*
X0009906Y0039624D01*
X0020448Y0032512D02*
X0030480D01*
X0018416Y0034544D02*
X0020448Y0032512D01*
X0009906Y0034544D02*
X0018416D01*
X0022672Y0024638D02*
X0024384D01*
X0017846Y0029464D02*
X0022672Y0024638D01*
X0009906Y0029464D02*
X0017846D01*
X0030480Y0032512D02*
X0034544Y0028448D01*
X0036068Y0024638D02*
X0038608D01*
X0034544Y0026162D02*
X0036068Y0024638D01*
X0034544Y0026162D02*
Y0028448D01*
D12*
X0048260Y0001690D02*
X0048300Y0001650D01*
Y0000990D02*
Y0001650D01*
X0055130Y0000940D02*
X0055140Y0000930D01*
X0056230D01*
X0009906Y0018982D02*
X0011200Y0017688D01*
X0010228Y0019304D02*
X0011522Y0020598D01*
X0010228Y0024384D02*
X0011522Y0025678D01*
X0009906Y0024062D02*
X0011200Y0022768D01*
X0008612Y0046320D02*
X0009906Y0045026D01*
X0008612Y0041240D02*
X0009906Y0039946D01*
X0008612Y0036160D02*
X0009906Y0034866D01*
X0008612Y0031080D02*
X0009906Y0029786D01*
X0008612Y0026000D02*
X0009906Y0024706D01*
X0008612Y0020920D02*
X0009906Y0019626D01*
X0008290Y0018010D02*
X0009584Y0019304D01*
X0008290Y0023090D02*
X0009584Y0024384D01*
X0008290Y0028170D02*
X0009584Y0029464D01*
X0008290Y0033250D02*
X0009584Y0034544D01*
X0008290Y0038330D02*
X0009584Y0039624D01*
X0009584Y0044704D02*
X0009906D01*
X0009611Y0039580D02*
X0009720D01*
X0008306Y0038275D02*
X0009611Y0039580D01*
X0008290Y0043410D02*
X0009584Y0044704D01*
D13*
X0015240Y0002540D02*
D03*
Y0007620D02*
D03*
D14*
X0039370Y0011430D02*
D03*
Y0008890D02*
D03*
X0045950Y0011430D02*
D03*
Y0008890D02*
D03*
X0053594Y0026416D02*
D03*
X0056134D02*
D03*
X0011506Y0046054D02*
D03*
Y0043354D02*
D03*
X0008306Y0046054D02*
D03*
Y0043354D02*
D03*
X0011506Y0040974D02*
D03*
X0011506Y0038274D02*
D03*
X0008306Y0040975D02*
D03*
Y0038275D02*
D03*
Y0033194D02*
D03*
Y0035894D02*
D03*
X0011506Y0033194D02*
D03*
Y0035894D02*
D03*
X0008306Y0028114D02*
D03*
X0008306Y0030814D02*
D03*
X0011506Y0028114D02*
D03*
X0011506Y0030814D02*
D03*
X0008305Y0023035D02*
D03*
Y0025735D02*
D03*
X0011506Y0023034D02*
D03*
Y0025734D02*
D03*
X0011506Y0020654D02*
D03*
Y0017954D02*
D03*
X0008306Y0020654D02*
D03*
X0008306Y0017954D02*
D03*
D15*
X0050490Y0010780D02*
D03*
D16*
X0009906Y0050800D02*
D03*
X0036830D02*
D03*
X0019050Y0002540D02*
D03*
X0041910D02*
D03*
D17*
X0012446Y0050800D02*
D03*
X0014986D02*
D03*
X0017526D02*
D03*
X0020066D02*
D03*
X0022606D02*
D03*
X0025146D02*
D03*
X0027686D02*
D03*
X0030226D02*
D03*
X0032766D02*
D03*
X0056134Y0013716D02*
D03*
Y0016256D02*
D03*
Y0018796D02*
D03*
Y0021336D02*
D03*
X0053594Y0018796D02*
D03*
Y0016256D02*
D03*
Y0013716D02*
D03*
X0054610Y0050800D02*
D03*
X0052070D02*
D03*
X0049530D02*
D03*
X0046990D02*
D03*
X0044450D02*
D03*
X0041910D02*
D03*
X0039370D02*
D03*
X0036830Y0002540D02*
D03*
X0034290D02*
D03*
X0031750D02*
D03*
X0029210D02*
D03*
X0026670D02*
D03*
X0024130D02*
D03*
X0021590D02*
D03*
X0044450D02*
D03*
X0046990D02*
D03*
X0049530D02*
D03*
X0052070D02*
D03*
X0054610D02*
D03*
D18*
X0009906Y0019304D02*
D03*
Y0024384D02*
D03*
X0009906Y0029464D02*
D03*
X0009906Y0034544D02*
D03*
X0009906Y0039624D02*
D03*
X0009906Y0044704D02*
D03*
D19*
X0006652Y0010414D02*
D03*
D20*
X0012652D02*
D03*
D21*
X0009652Y0005714D02*
D03*
D22*
X0053594Y0021336D02*
D03*
D23*
X0019192Y0009482D02*
D03*
X0022728Y0013018D02*
D03*
X0013510Y0022560D02*
D03*
X0013580Y0025730D02*
D03*
X0013140Y0043510D02*
D03*
X0012980Y0028740D02*
D03*
X0012990Y0033910D02*
D03*
X0013040Y0039040D02*
D03*
X0036210Y0038070D02*
D03*
X0022650Y0038580D02*
D03*
X0022330Y0024280D02*
D03*
X0036000Y0024350D02*
D03*
X0029310Y0007150D02*
D03*
X0026670Y0007620D02*
D03*
D24*
X0038608Y0022098D02*
D03*
X0024384D02*
D03*
X0038608Y0036322D02*
D03*
X0024638D02*
D03*
D25*
X0038608Y0024638D02*
D03*
Y0027178D02*
D03*
X0024384Y0024638D02*
D03*
Y0027178D02*
D03*
X0038608Y0038862D02*
D03*
Y0041402D02*
D03*
X0024638Y0038862D02*
D03*
Y0041402D02*
D03*
D26*
X0044958Y0021082D02*
D03*
Y0028702D02*
D03*
X0030988Y0021082D02*
D03*
Y0028702D02*
D03*
X0044958Y0035052D02*
D03*
Y0042672D02*
D03*
X0030988Y0035052D02*
D03*
Y0042672D02*
D03*
D27*
X0049360Y0045770D02*
D03*
X0034070Y0041560D02*
D03*
X0026360Y0040070D02*
D03*
X0030280Y0037500D02*
D03*
X0025980Y0046110D02*
D03*
X0032750Y0043650D02*
D03*
X0044120Y0044990D02*
D03*
X0045450Y0045840D02*
D03*
X0042290Y0044880D02*
D03*
X0047777Y0046787D02*
D03*
X0034900Y0045669D02*
D03*
X0034265Y0047676D02*
D03*
X0031530Y0046020D02*
D03*
X0028800D02*
D03*
X0029040Y0047750D02*
D03*
X0051130Y0044050D02*
D03*
X0045610D02*
D03*
X0050520Y0047780D02*
D03*
X0049640Y0048480D02*
D03*
X0024070Y0006860D02*
D03*
X0010970Y0016350D02*
D03*
X0001570Y0018610D02*
D03*
X0016783Y0045613D02*
D03*
X0028920Y0049410D02*
D03*
X0028190Y0023160D02*
D03*
X0026130Y0026000D02*
D03*
X0021670Y0030530D02*
D03*
X0021800Y0034850D02*
D03*
X0020590Y0037400D02*
D03*
X0019770Y0041610D02*
D03*
X0028060Y0037190D02*
D03*
X0035530Y0034990D02*
D03*
X0045040Y0033170D02*
D03*
X0041980Y0037580D02*
D03*
X0041720Y0042890D02*
D03*
X0050770Y0052330D02*
D03*
X0043160D02*
D03*
X0034630D02*
D03*
X0026390D02*
D03*
X0018790D02*
D03*
X0011140D02*
D03*
X0008350Y0048520D02*
D03*
X0013180Y0046350D02*
D03*
X0040360Y0018630D02*
D03*
X0034170Y0022400D02*
D03*
X0037540Y0029210D02*
D03*
X0034420Y0031420D02*
D03*
X0041400Y0031370D02*
D03*
X0043080Y0025820D02*
D03*
X0046380Y0026100D02*
D03*
X0048040Y0026410D02*
D03*
X0048020Y0031430D02*
D03*
X0045310Y0019010D02*
D03*
X0046730Y0017050D02*
D03*
X0048040Y0023890D02*
D03*
X0049370Y0021370D02*
D03*
X0050670Y0019180D02*
D03*
X0050680Y0027610D02*
D03*
X0052130Y0032170D02*
D03*
X0053370Y0030680D02*
D03*
X0054480Y0042880D02*
D03*
X0053340Y0040920D02*
D03*
X0051920Y0042950D02*
D03*
X0050640Y0035880D02*
D03*
X0049360Y0038010D02*
D03*
X0047490Y0039450D02*
D03*
X0028940Y0044040D02*
D03*
X0055460Y0048630D02*
D03*
X0031710Y0047670D02*
D03*
X0047240Y0042900D02*
D03*
X0037530Y0048480D02*
D03*
X0045730Y0049890D02*
D03*
X0040110Y0048840D02*
D03*
X0042210Y0049270D02*
D03*
X0023350Y0048520D02*
D03*
X0020470Y0048260D02*
D03*
X0051220Y0045960D02*
D03*
X0058560Y0037590D02*
D03*
X0056050Y0045490D02*
D03*
Y0039730D02*
D03*
X0046970Y0044850D02*
D03*
X0058600Y0033300D02*
D03*
X0055730Y0030450D02*
D03*
X0052220Y0028320D02*
D03*
X0052120Y0024130D02*
D03*
X0052250Y0019950D02*
D03*
X0051880Y0016660D02*
D03*
X0050140Y0015850D02*
D03*
X0056230Y0000930D02*
D03*
X0050480Y0013340D02*
D03*
X0052550Y0009860D02*
D03*
X0048300Y0000930D02*
D03*
X0040010D02*
D03*
X0038680Y0004830D02*
D03*
X0042697Y0009855D02*
D03*
X0037010Y0016810D02*
D03*
X0029070Y0016860D02*
D03*
X0025730Y0018860D02*
D03*
X0022120Y0022190D02*
D03*
X0016880Y0027550D02*
D03*
X0006620Y0021140D02*
D03*
X0006550Y0027670D02*
D03*
Y0031840D02*
D03*
X0013280Y0031890D02*
D03*
Y0037090D02*
D03*
X0006450Y0037010D02*
D03*
X0006310Y0042230D02*
D03*
X0013170Y0042090D02*
D03*
X0001570Y0047130D02*
D03*
Y0051810D02*
D03*
Y0042980D02*
D03*
Y0038770D02*
D03*
Y0033720D02*
D03*
Y0029020D02*
D03*
Y0023850D02*
D03*
Y0013150D02*
D03*
Y0007560D02*
D03*
Y0001390D02*
D03*
X0007980Y0001370D02*
D03*
X0017100Y0001000D02*
D03*
X0022840Y0000930D02*
D03*
X0033290D02*
D03*
X0030470Y0004410D02*
D03*
X0053130Y0048310D02*
D03*
X0055070Y0047440D02*
D03*
D28*
X0046790Y0027990D02*
D03*
X0047110Y0018550D02*
D03*
X0048260Y0016510D02*
D03*
X0028448Y0030480D02*
D03*
X0052070D02*
D03*
X0053340Y0029210D02*
D03*
D29*
X0026250Y0048480D02*
D03*
M02*
